<?xml version="1.0" encoding="UTF-8" standalone="no"?>
<!-- Created with Inkscape (http://www.inkscape.org/) -->

<svg
   xmlns:dc="http://purl.org/dc/elements/1.1/"
   xmlns:cc="http://creativecommons.org/ns#"
   xmlns:rdf="http://www.w3.org/1999/02/22-rdf-syntax-ns#"
   xmlns:svg="http://www.w3.org/2000/svg"
   xmlns="http://www.w3.org/2000/svg"
   xmlns:sodipodi="http://sodipodi.sourceforge.net/DTD/sodipodi-0.dtd"
   xmlns:inkscape="http://www.inkscape.org/namespaces/inkscape"
   width="300"
   height="54.324467"
   id="svg3720"
   version="1.1"
   inkscape:version="0.48.1 "
   sodipodi:docname="Corporation_Bank_Logo.svg">
  <defs
     id="defs3722" />
  <sodipodi:namedview
     id="base"
     pagecolor="#ffffff"
     bordercolor="#666666"
     borderopacity="1.0"
     inkscape:pageopacity="0.0"
     inkscape:pageshadow="2"
     inkscape:zoom="3.959798"
     inkscape:cx="102.65207"
     inkscape:cy="8.9224028"
     inkscape:document-units="px"
     inkscape:current-layer="layer1"
     showgrid="false"
     fit-margin-top="0"
     fit-margin-left="0"
     fit-margin-right="0"
     fit-margin-bottom="0"
     inkscape:window-width="1280"
     inkscape:window-height="720"
     inkscape:window-x="-8"
     inkscape:window-y="-8"
     inkscape:window-maximized="1" />
  <metadata
     id="metadata3725">
    <rdf:RDF>
      <cc:Work
         rdf:about="">
        <dc:format>image/svg+xml</dc:format>
        <dc:type
           rdf:resource="http://purl.org/dc/dcmitype/StillImage" />
        <dc:title />
      </cc:Work>
    </rdf:RDF>
  </metadata>
  <g
     inkscape:label="Layer 1"
     inkscape:groupmode="layer"
     id="layer1"
     transform="translate(-188.61988,-530.14156)">
    <path
       d="m -77.140076,585.01563 770.798256,0 -2.5e-4,1.4174 -770.798006,0"
       style="fill:#ffffff;fill-opacity:1;fill-rule:nonzero;stroke:none"
       id="path212"
       inkscape:connector-curvature="0" />
    <g
       id="g2993"
       transform="matrix(1.7731341,0,0,1.7731341,-145.82846,-451.87062)">
      <path
         inkscape:connector-curvature="0"
         id="path208"
         style="fill:#00a650;fill-opacity:1;fill-rule:evenodd;stroke:none"
         d="m 188.61988,553.82849 169.19194,0 0,30.63754 -169.19194,0 0,-30.63754 z" />
      <path
         inkscape:connector-curvature="0"
         id="path218"
         style="fill:#fff200;fill-opacity:1;fill-rule:evenodd;stroke:none"
         d="m 331.69955,571.62171 c 0,0.1426 0.0585,0.25762 0.17241,0.34507 0.11428,0.0873 0.26681,0.13121 0.45377,0.13121 0.19069,0 0.34322,-0.0431 0.45574,-0.12912 0.11422,-0.0858 0.17059,-0.20231 0.17059,-0.34716 0,-0.14592 -0.0577,-0.26408 -0.17219,-0.35235 -0.11465,-0.0887 -0.26659,-0.13286 -0.45414,-0.13286 -0.18696,0 -0.33949,0.0456 -0.45377,0.13491 -0.11414,0.0893 -0.17241,0.20665 -0.17241,0.3503 z m 1.59354,1.34615 c -1.45528,0.9356 -2.93153,0.51384 -3.59259,-0.38984 -0.39272,-0.53806 -0.7994,-2.27701 2.48784,-2.85175 1.09641,-0.37638 0.35792,-0.55194 0.21095,-0.56395 -0.8636,-0.0709 -2.20671,0.54902 -2.8065,1.07984 l 0,-2.1421 c 1.09597,-1.5868 5.40855,-1.83076 5.87504,0.62863 l 0,2.3191 c 0.11839,0.46633 0.43674,0.43318 0.73024,0.42467 l -0.52455,1.837 c -0.9599,0.31916 -1.87022,0.0889 -2.38043,-0.3416 z m -45.16851,-1.34615 c 0,0.1426 0.0577,0.25762 0.17234,0.34507 0.11414,0.0873 0.26674,0.13121 0.45363,0.13121 0.19047,0 0.34299,-0.0431 0.45596,-0.12912 0.11407,-0.0858 0.17014,-0.20231 0.17014,-0.34716 0,-0.14592 -0.0577,-0.26408 -0.17197,-0.35235 -0.11443,-0.0887 -0.2668,-0.13286 -0.45413,-0.13286 -0.18689,0 -0.33949,0.0456 -0.45363,0.13491 -0.11472,0.0893 -0.17234,0.20665 -0.17234,0.3503 z m 1.59347,1.34615 c -1.45535,0.9356 -2.93197,0.51384 -3.59244,-0.38984 -0.39323,-0.53806 -0.79985,-2.27701 2.48755,-2.85175 1.0964,-0.37638 0.35835,-0.55194 0.21072,-0.56395 -0.86359,-0.0709 -2.20692,0.54902 -2.80634,1.07984 l 0,-2.1421 c 1.09582,-1.5868 5.4084,-1.83076 5.87496,0.62863 l 0,2.3191 c 0.11831,0.46633 0.43666,0.43318 0.73016,0.42467 l -0.5244,1.837 c -0.96004,0.31916 -1.87007,0.0889 -2.38021,-0.3416 z m -20.49193,-2.86854 c 0,0.1279 -0.0274,0.25144 -0.0825,0.36772 -0.055,0.11585 -0.13328,0.22012 -0.23486,0.30839 -0.0885,0.0775 -0.19045,0.13577 -0.30525,0.17619 -0.11506,0.0394 -0.23796,0.0597 -0.37079,0.0597 -0.13207,0 -0.25623,-0.0192 -0.36958,-0.0593 -0.11461,-0.0404 -0.28021,-0.0989 -0.37223,-0.1766 -0.0189,-0.0162 -0.0208,-1.33437 0,-1.3522 0.0914,-0.0781 0.25762,-0.13615 0.37223,-0.17638 0.11335,-0.0399 0.23751,-0.0593 0.36958,-0.0593 0.13283,0 0.25573,0.0201 0.37079,0.0597 0.1148,0.0406 0.21701,0.0989 0.30816,0.17594 0.0996,0.085 0.17685,0.18697 0.23195,0.30573 0.0551,0.11729 0.0825,0.24042 0.0825,0.37036 z m -4.45022,5.94913 0,-9.1702 2.71497,0 0,0.37329 c 0.99672,-0.667 2.9326,-0.4309 3.68227,0.52853 0.46091,0.58925 0.94195,1.37187 0.94195,2.35224 0,1.42991 -1.00564,3.28221 -2.91054,3.28221 -1.50514,0 -1.71368,-0.45348 -1.71368,0.11088 l 0,2.52305 -2.71497,0 z m -14.70949,-7.55519 c -0.33473,-0.25164 -0.70178,-0.43836 -1.07693,-0.56271 -0.37452,-0.12354 -0.77104,-0.18634 -1.18553,-0.18634 -0.64505,0 -1.1651,0.14548 -1.55664,0.43441 -0.39146,0.28853 -0.58881,0.67423 -0.58881,1.15489 0,0.46945 0.18824,0.84314 0.56339,1.12335 0.37471,0.28043 0.87819,0.42117 1.5078,0.42117 0.37907,0 0.76585,-0.0589 1.15739,-0.1768 0.39399,-0.11875 0.82158,-0.30592 1.25561,-0.5648 l -0.11898,2.53133 c -1.15365,0.60893 -1.52716,0.94762 -3.82592,0.72728 -0.4723,-0.0452 -0.87427,-0.21244 -1.24689,-0.37265 -0.90014,-0.40623 -1.57953,-0.92212 -2.04012,-1.54433 -0.46319,-0.6224 -0.69368,-1.33601 -0.69368,-2.14455 0,-0.59631 0.13061,-1.14948 0.39462,-1.65977 0.26117,-0.50883 0.6434,-0.95776 1.14208,-1.34742 0.50608,-0.39299 1.09262,-0.69103 1.75777,-0.8923 1.99427,-0.60725 2.81212,-0.24706 4.55484,0.37601 l 0,2.68323 z m 56.62637,1.60606 c 0,0.1279 -0.0278,0.25144 -0.0827,0.36772 -0.0556,0.11585 -0.13308,0.22012 -0.23486,0.30839 -0.0882,0.0775 -0.19025,0.13577 -0.30527,0.17619 -0.11479,0.0394 -0.23756,0.0597 -0.37063,0.0597 -0.13242,0 -0.25658,-0.0192 -0.36998,-0.0593 -0.11436,-0.0404 -0.21614,-0.0982 -0.30776,-0.1766 -0.10075,-0.085 -0.17899,-0.18713 -0.23361,-0.30551 -0.0563,-0.11812 -0.0836,-0.2427 -0.0836,-0.3706 0,-0.12994 0.0278,-0.25307 0.0836,-0.37036 0.0548,-0.11626 0.13286,-0.21867 0.23361,-0.30573 0.0916,-0.0781 0.1934,-0.13615 0.30776,-0.17638 0.1134,-0.0399 0.23756,-0.0593 0.36998,-0.0593 0.13307,0 0.25584,0.0201 0.37063,0.0597 0.11502,0.0406 0.21709,0.0989 0.30812,0.17594 0.0997,0.085 0.17665,0.18697 0.23201,0.30573 0.0548,0.11729 0.0827,0.24042 0.0827,0.37036 z m -29.64911,0 c 0,0.1279 -0.0276,0.25144 -0.0825,0.36772 -0.0555,0.11585 -0.13339,0.22012 -0.23523,0.30839 -0.0882,0.0775 -0.19045,0.13577 -0.30507,0.17619 -0.1148,0.0394 -0.2377,0.0597 -0.37059,0.0597 -0.13244,0 -0.25662,-0.0192 -0.36977,-0.0593 -0.11461,-0.0404 -0.21657,-0.0982 -0.30798,-0.1766 -0.10094,-0.085 -0.17924,-0.18713 -0.23358,-0.30551 -0.0562,-0.11812 -0.0839,-0.2427 -0.0839,-0.3706 0,-0.12994 0.0278,-0.25307 0.0839,-0.37036 0.0543,-0.11626 0.13264,-0.21867 0.23358,-0.30573 0.0914,-0.0781 0.19337,-0.13615 0.30798,-0.17638 0.11315,-0.0399 0.23733,-0.0593 0.36977,-0.0593 0.13289,0 0.25579,0.0201 0.37059,0.0597 0.11462,0.0406 0.21683,0.0989 0.30842,0.17594 0.0993,0.085 0.17641,0.18697 0.23188,0.30573 0.055,0.11729 0.0825,0.24042 0.0825,0.37036 z m -21.67523,0 c 0,0.1279 -0.0278,0.25144 -0.0827,0.36772 -0.055,0.11585 -0.13327,0.22012 -0.23505,0.30839 -0.0887,0.0775 -0.19044,0.13577 -0.30531,0.17619 -0.1148,0.0394 -0.23751,0.0597 -0.37034,0.0597 -0.13245,0 -0.25681,-0.0192 -0.36977,-0.0593 -0.11442,-0.0404 -0.21638,-0.0982 -0.30779,-0.1766 -0.10132,-0.085 -0.17931,-0.18713 -0.23402,-0.30551 -0.0559,-0.11812 -0.0835,-0.2427 -0.0835,-0.3706 0,-0.12994 0.0275,-0.25307 0.0835,-0.37036 0.0547,-0.11626 0.1327,-0.21867 0.23402,-0.30573 0.0914,-0.0781 0.19337,-0.13615 0.30779,-0.17638 0.11296,-0.0399 0.23732,-0.0593 0.36977,-0.0593 0.13283,0 0.25554,0.0201 0.37034,0.0597 0.11487,0.0406 0.21727,0.0989 0.30823,0.17594 0.0999,0.085 0.17704,0.18697 0.23213,0.30573 0.055,0.11729 0.0827,0.24042 0.0827,0.37036 z m 54.06452,0 c 0,0.48234 -0.10332,0.94329 -0.30768,1.38102 -0.20685,0.43796 -0.50196,0.82493 -0.884,1.15903 -0.33518,0.28976 -0.71671,0.50965 -1.14679,0.6599 -0.43029,0.14988 -0.89416,0.22613 -1.39407,0.22613 -0.49742,0 -0.96157,-0.074 -1.38953,-0.22195 -0.42811,-0.15048 -0.81191,-0.37018 -1.15563,-0.66408 -0.37752,-0.32167 -0.67072,-0.70428 -0.87947,-1.14847 -0.20853,-0.44394 -0.312,-0.90924 -0.312,-1.39158 0,-0.48621 0.10347,-0.95174 0.312,-1.39153 0.20875,-0.43982 0.50195,-0.82266 0.87947,-1.14806 0.34372,-0.29409 0.72752,-0.51421 1.15563,-0.66427 0.42796,-0.14798 0.89211,-0.22198 1.38953,-0.22198 0.49991,0 0.96378,0.0759 1.39407,0.2259 0.43008,0.15029 0.81593,0.37041 1.15725,0.66035 0.3756,0.32125 0.66669,0.70368 0.87354,1.14619 0.20436,0.44166 0.30768,0.90719 0.30768,1.3934 z m -29.64908,0 c 0,0.48234 -0.10361,0.94329 -0.30797,1.38102 -0.20684,0.43796 -0.50178,0.82493 -0.88357,1.15903 -0.3353,0.28976 -0.71696,0.50965 -1.1472,0.6599 -0.43005,0.14988 -0.89394,0.22613 -1.39388,0.22613 -0.49761,0 -0.9615,-0.074 -1.38946,-0.22195 -0.42821,-0.15048 -0.81164,-0.37018 -1.15549,-0.66408 -0.37742,-0.32167 -0.67072,-0.70428 -0.87945,-1.14847 -0.20873,-0.44394 -0.31215,-0.90924 -0.31215,-1.39158 0,-0.48621 0.10342,-0.95174 0.31215,-1.39153 0.20873,-0.43982 0.50203,-0.82266 0.87945,-1.14806 0.34385,-0.29409 0.72728,-0.51421 1.15549,-0.66427 0.42796,-0.14798 0.89185,-0.22198 1.38946,-0.22198 0.49994,0 0.96383,0.0759 1.39388,0.2259 0.43024,0.15029 0.81595,0.37041 1.15776,0.66035 0.3754,0.32125 0.66617,0.70368 0.87301,1.14619 0.20436,0.44166 0.30797,0.90719 0.30797,1.3934 z m -21.67524,0 c 0,0.48234 -0.10342,0.94329 -0.30797,1.38102 -0.20684,0.43796 -0.50203,0.82493 -0.88382,1.15903 -0.33493,0.28976 -0.71671,0.50965 -1.14695,0.6599 -0.42986,0.14988 -0.89394,0.22613 -1.39388,0.22613 -0.49761,0 -0.96124,-0.074 -1.38971,-0.22195 -0.42777,-0.15048 -0.81184,-0.37018 -1.15549,-0.66408 -0.37761,-0.32167 -0.67047,-0.70428 -0.8792,-1.14847 -0.20868,-0.44394 -0.31215,-0.90924 -0.31215,-1.39158 0,-0.48621 0.10347,-0.95174 0.31215,-1.39153 0.20873,-0.43982 0.50159,-0.82266 0.8792,-1.14806 0.34365,-0.29409 0.72772,-0.51421 1.15549,-0.66427 0.42847,-0.14798 0.8921,-0.22198 1.38971,-0.22198 0.49994,0 0.96402,0.0759 1.39388,0.2259 0.43024,0.15029 0.81601,0.37041 1.15751,0.66035 0.37559,0.32125 0.66642,0.70368 0.87326,1.14619 0.20455,0.44166 0.30797,0.90719 0.30797,1.3934 z m 22.06721,3.18503 0,-6.4061 2.7678,0 0,0.77392 c 1.06987,-1.01038 1.8583,-0.95526 3.0872,-0.13969 l -1.10241,2.76013 c -0.84999,-0.82386 -1.89361,-0.457 -1.89361,0.47195 l 0,2.53979 -2.85898,0 z m -21.67543,0 0,-6.4061 2.76797,0 0,0.77392 c 1.06991,-1.01038 2.03349,-0.9051 3.26216,-0.0895 l -1.27763,2.70997 c -0.84998,-0.82386 -1.89332,-0.457 -1.89332,0.47195 l 0,2.53979 -2.85918,0 z m 34.73263,-1.63696 0,-2.68385 -1.08727,0 3.94071,-3.90423 0,1.81894 1.88666,0 0,2.08529 -1.88666,0 0,1.73397 c 0.24129,0.65019 1.28191,0.12498 1.92322,-0.22509 l 0,2.1371 c -0.36756,0.6734 -4.2396,1.76381 -4.77666,-0.96213 z m 7.91526,-6.08114 c 0,0.32666 -0.0981,0.58575 -0.29562,0.7781 -0.19632,0.19254 -0.46276,0.28931 -0.79669,0.28931 -0.33737,0 -0.60674,-0.0968 -0.80547,-0.29077 -0.2002,-0.1938 -0.29971,-0.45307 -0.29971,-0.77664 0,-0.32391 0.0978,-0.57847 0.29583,-0.76519 0.19625,-0.18697 0.46679,-0.28024 0.80935,-0.28024 0.3397,0 0.60622,0.0933 0.80057,0.28024 0.19493,0.18672 0.29174,0.44128 0.29174,0.76519 z m -2.52535,1.312 2.85343,0 0,6.40609 -2.85343,0 0,-6.40609 z m 38.01228,6.4061 0,-6.4061 2.76774,0 0,0.88648 c 0.24641,-0.36809 0.5198,-0.64315 0.81849,-0.82285 0.29883,-0.1797 0.63634,-0.2684 1.01064,-0.2684 0.62633,0 1.12111,0.20706 1.4859,0.61948 0.36662,0.41228 0.54883,0.97709 0.54883,1.69193 l 0,4.29946 -2.85322,0 0,-3.23369 c 0,-0.31942 -0.0314,-0.53705 -0.0913,-0.65766 -0.06,-0.12044 -0.167,-0.1797 -0.31829,-0.1797 -0.16458,0 -0.29262,0.0698 -0.37992,0.2112 -0.0875,0.13969 -0.13,0.34924 -0.13,0.62616 l 0,3.23369 -2.85892,0 z m -26.72928,0 0,-6.4061 2.76781,0 0,0.88648 c 0.24641,-0.36809 0.5198,-0.64315 0.81849,-0.82285 0.29847,-0.1797 0.63627,-0.2684 1.01085,-0.2684 0.62633,0 1.12113,0.20706 1.4854,0.61948 0.36669,0.41228 0.54912,0.97709 0.54912,1.69193 l 0,4.29946 -2.85322,0 0,-3.23369 c 0,-0.31942 -0.0314,-0.53705 -0.091,-0.65766 -0.06,-0.12044 -0.16707,-0.1797 -0.31835,-0.1797 -0.16481,0 -0.2927,0.0698 -0.37992,0.2112 -0.0877,0.13969 -0.13023,0.34924 -0.13023,0.62616 l 0,3.23369 -2.85899,0 z m 14.44756,-3.25548 0,1.61397 0.54838,0 c 0.32772,0 0.581,-0.0703 0.75736,-0.20934 0.17665,-0.14137 0.26388,-0.33951 0.26388,-0.59858 0,-0.26177 -0.0872,-0.46199 -0.26388,-0.59858 -0.17636,-0.13907 -0.42964,-0.20747 -0.75736,-0.20747 l -0.54838,0 z m 0,-3.01443 0,1.46636 0.50531,0 c 0.31317,0 0.55073,-0.0636 0.71591,-0.19066 0.16246,-0.125 0.24538,-0.3082 0.24538,-0.54489 0,-0.2396 -0.0829,-0.42015 -0.24538,-0.54492 -0.16518,-0.12517 -0.40274,-0.18589 -0.71591,-0.18589 l -0.50531,0 z m -3.07798,6.26991 0,-7.99685 4.36697,0 c 0.93585,0 1.66556,0.19172 2.18887,0.57579 0.52294,0.38425 0.78478,0.91942 0.78478,1.6034 0,0.43669 -0.12306,0.80023 -0.36998,1.08935 -0.24912,0.29081 -0.59804,0.47942 -1.05108,0.56668 0.6191,0.11193 1.08047,0.32457 1.38311,0.63774 0.30381,0.31318 0.45494,0.73435 0.45494,1.26225 0,0.7478 -0.28721,1.31074 -0.8636,1.69107 -0.57441,0.38012 -1.42112,0.57057 -2.53757,0.57057 l -4.35644,0 z m 22.59277,0 0,-8.1183 2.82389,0 0,3.36491 1.68238,-1.65271 3.3401,0 -2.53427,3.07952 2.64841,3.32658 -3.37462,0 -1.762,-2.08735 0,2.08735" />
      <g
         transform="translate(0,1.2626907)"
         id="g3006">
        <path
           d="m 198.83783,570.94292 -0.0504,-0.20728 -0.0471,-0.20829 -0.0439,-0.20955 -0.0404,-0.2106 -0.0371,-0.21179 -0.0338,-0.21307 -0.0303,-0.21392 -0.0269,-0.21511 -0.0232,-0.21617 -0.0199,-0.21724 -0.0164,-0.21803 -0.0126,-0.21889 -0.009,-0.21989 -0.006,-0.22075 -0.002,-0.22694 0.0172,-0.67279 0.0512,-0.66968 0.0844,-0.66031 0.11651,-0.6502 0.14814,-0.639 0.17868,-0.62677 0.20854,-0.6137 0.23726,-0.60005 0.26534,-0.58529 0.29267,-0.57 0.31872,-0.55339 0.34454,-0.53619 0.36889,-0.51835 0.39297,-0.49952 0.41576,-0.47962 0.43796,-0.45927 0.45933,-0.43795 0.47977,-0.41579 0.49931,-0.39276 0.51835,-0.36892 0.53644,-0.34447 0.5534,-0.31879 0.5697,-0.29264 0.58534,-0.26531 0.60026,-0.23732 0.61367,-0.20851 0.62701,-0.17866 0.63878,-0.14797 0.65017,-0.1167 0.66035,-0.0843 0.66965,-0.0512 0.67819,-0.0172 0.67818,0.0172 0.66966,0.0512 0.66034,0.0843 0.65017,0.1167 0.63885,0.14797 0.62695,0.17866 0.61367,0.20851 0.60026,0.23732 0.58533,0.26531 0.56978,0.29264 0.55358,0.31879 0.53619,0.34447 0.51834,0.36892 0.49957,0.39276 0.47957,0.41579 0.45928,0.43795 0.43802,0.45927 0.41569,0.47962 0.39305,0.49952 0.36888,0.51835 0.34447,0.53619 0.31879,0.55339 0.29266,0.57 0.26528,0.58529 0.23733,0.60005 0.20848,0.6137 0.17868,0.62677 0.14821,0.639 0.1165,0.6502 0.0843,0.66031 0.0512,0.66968 0.0172,0.67279 -0.002,0.22694 -0.006,0.22075 -0.009,0.21989 -0.0126,0.21889 -0.0163,0.21803 -0.0199,0.21724 -0.0232,0.21617 -0.027,0.21511 -0.0303,0.21392 -0.0337,0.21307 -0.0371,0.21179 -0.0404,0.2106 -0.0439,0.20955 -0.0471,0.20829 -0.0504,0.20728 -0.0536,0.20579 -0.057,0.20455 -0.0601,0.20314 -0.0632,0.20168 -0.0665,0.20063 -0.0695,0.19897 -0.0725,0.19753 -0.0756,0.19608 -0.0786,0.19459 -0.0817,0.19318 -0.0846,0.19152 -0.0796,0.17287 1.48484,0 0,1.31836 2.63077,0 -1.30887,2.31104 1.71597,2.11862 -6.64177,0 0,-0.79963 -1.8863,0 -0.0688,0.0527 -0.21513,0.15768 -0.21847,0.15357 -0.22157,0.14928 -0.22467,0.14485 -0.22777,0.14036 -0.23068,0.13592 -0.23384,0.13144 -0.23669,0.12663 -0.23935,0.12207 -0.24232,0.11733 -0.24478,0.11253 -0.24769,0.1076 -0.25017,0.10278 -0.25244,0.0976 -0.25516,0.0927 -0.25755,0.0875 -0.25978,0.0823 -0.26218,0.0771 -0.26427,0.0717 -0.26654,0.0663 -0.26838,0.0609 -0.27046,0.0553 -0.27237,0.0499 -0.27445,0.0442 -0.27584,0.0385 -0.27793,0.0328 -0.27944,0.027 -0.28122,0.0209 -0.28249,0.0151 -0.28413,0.009 -0.28545,0.003 -0.28539,-0.003 -0.28414,-0.009 -0.28254,-0.0151 -0.28103,-0.0209 -0.27963,-0.027 -0.27768,-0.0328 -0.27609,-0.0385 -0.27445,-0.0442 -0.2723,-0.0499 -0.27053,-0.0553 -0.26838,-0.0609 -0.26654,-0.0663 -0.26427,-0.0717 -0.26199,-0.0771 -0.25984,-0.0823 -0.2575,-0.0875 -0.25509,-0.0927 -0.25269,-0.0976 -0.25016,-0.10278 -0.24745,-0.1076 -0.24503,-0.11253 -0.24206,-0.11733 -0.23961,-0.12207 -0.23669,-0.12663 -0.23359,-0.13144 -0.23093,-0.13592 -0.22777,-0.14036 -0.22461,-0.14485 -0.22163,-0.14928 -0.21841,-0.15357 -0.21493,-0.15768 -0.0691,-0.0527 -2.11799,0 0,0.79963 -6.78516,0 1.85974,-2.12198 -1.41413,-2.30768 2.84425,0 0,-1.31836 1.60818,0 -0.0798,-0.17287 -0.0846,-0.19152 -0.0817,-0.19318 -0.0786,-0.19459 -0.0756,-0.19608 -0.0725,-0.19753 -0.0695,-0.19897 -0.0665,-0.20063 -0.0632,-0.20168 -0.0601,-0.20314 -0.057,-0.20455"
           style="fill:#ffffff;fill-opacity:1;fill-rule:evenodd;stroke:none"
           id="path220"
           inkscape:connector-curvature="0" />
        <path
           d="m 201.9528,571.00861 0.0163,-0.30342 c 0.2021,-0.0189 0.36212,0.006 0.48084,0.0756 0.11835,0.0698 0.20089,0.17615 0.24732,0.31917 0.0584,0.1797 0.0364,0.34779 -0.0655,0.50427 -0.11791,0.18056 -0.31278,0.31484 -0.58408,0.40292 -0.28684,0.0933 -0.53225,0.10155 -0.73618,0.0247 -0.17724,-0.0665 -0.29659,-0.1944 -0.35838,-0.38426 -0.0502,-0.1542 -0.0391,-0.30053 0.0324,-0.439 0.0512,-0.0984 0.1446,-0.1888 0.28103,-0.27128 l 0.16952,0.24911 c -0.0854,0.0473 -0.14384,0.10469 -0.17534,0.17287 -0.0315,0.0684 -0.0357,0.13805 -0.0126,0.20892 0.0331,0.10177 0.10448,0.17037 0.2141,0.2056 0.10924,0.0355 0.26617,0.0201 0.47047,-0.0464 0.21164,-0.0686 0.35237,-0.14903 0.42119,-0.24065 0.0695,-0.0918 0.0875,-0.18757 0.0549,-0.28789 -0.0239,-0.0736 -0.0731,-0.12767 -0.14713,-0.16249 -0.0746,-0.035 -0.17767,-0.0443 -0.30879,-0.0278 z m -0.46742,-0.63755 c 0.19816,-0.0456 0.33763,-0.11752 0.41955,-0.21556 0.0817,-0.0982 0.1098,-0.2027 0.084,-0.31421 -0.0258,-0.11192 -0.0965,-0.19317 -0.21176,-0.24415 -0.11544,-0.0512 -0.27445,-0.0528 -0.47838,-0.006 -0.19962,0.046 -0.33909,0.11588 -0.41822,0.20978 -0.079,0.0935 -0.10513,0.19835 -0.0784,0.3142 0.0267,0.11584 0.0968,0.19937 0.20974,0.24975 0.11354,0.0508 0.2711,0.0528 0.47338,0.006 z m 0.0794,0.29099 c -0.20537,0.0475 -0.38116,0.0564 -0.5279,0.0259 -0.14674,-0.0298 -0.26426,-0.0864 -0.35174,-0.16914 -0.0876,-0.0829 -0.14757,-0.19421 -0.1797,-0.33368 -0.0466,-0.20209 -0.008,-0.38448 0.11733,-0.54761 0.12499,-0.16271 0.33018,-0.27732 0.61513,-0.34301 0.28811,-0.0665 0.52897,-0.0512 0.72214,0.0462 0.17104,0.0852 0.27939,0.22904 0.3262,0.43195 0.0473,0.20456 0.0135,0.3822 -0.1007,0.5333 -0.131,0.17203 -0.33808,0.29078 -0.62076,0.35606 z m 0.54366,-1.67779 -1.76689,0.052 -0.0182,-0.61579 c -0.004,-0.15772 0.0204,-0.23855 0.05,-0.30696 0.0298,-0.0684 0.0834,-0.12559 0.16008,-0.17119 0.0773,-0.0458 0.17034,-0.0699 0.27933,-0.0731 0.13852,-0.004 0.25104,0.0255 0.33706,0.0893 0.0866,0.0639 0.13018,0.12457 0.15504,0.24561 0.0435,-0.0638 0.0522,-0.0959 0.10449,-0.13802 0.0522,-0.0425 0.16661,-0.0578 0.31872,-0.0896 l 0.29324,-0.0611 0.0216,0.36045 -0.33328,0.0425 c -0.1057,0.0135 -0.29014,0.0811 -0.33366,0.18802 -0.0125,0.0307 -0.0174,0.08 -0.0154,0.14757 l 0.002,0.0605 0.73763,-0.0219 0.008,0.29181 z m -1.02842,-0.26177 -0.007,-0.21702 c -0.004,-0.13244 0.004,-0.16291 -0.008,-0.19873 -0.0126,-0.0359 -0.0368,-0.0645 -0.073,-0.086 -0.036,-0.0214 -0.0837,-0.0311 -0.14194,-0.0297 -0.0566,0.002 -0.10159,0.0145 -0.13492,0.0379 -0.0336,0.0234 -0.056,0.0547 -0.0678,0.0937 -0.008,0.0276 -0.0269,0.0533 -0.0231,0.18403 l 0.007,0.22926 0.44808,-0.0135 z m 9.60208,8.89993 -0.86984,0 c 0.0199,0.0473 0.0398,0.0945 0.0597,0.14194 0.18014,0.19361 0.22695,0.14801 0.48628,0.1542 -0.29621,0.11461 -0.37224,0.23296 -0.53891,0.55757 0.54511,-0.0336 0.76377,-0.008 1.07775,-0.41165 -0.10032,-0.10815 -0.0881,-0.30069 -0.21493,-0.44206 z m -1.50412,0 -0.30178,0 c -0.002,0.007 -0.004,0.014 -0.005,0.0218 -0.0612,0.0715 -0.18817,0.39671 -0.24934,0.46819 0.18115,0.0617 0.50033,-0.0789 0.59027,-0.27958 -0.0196,-0.009 -0.0253,-0.12232 -0.0342,-0.21037 z m -0.57971,0 -0.33226,0 c -0.10614,0.0851 -0.25636,0.21929 -0.35485,0.29614 0.12113,0.0719 0.25997,0.0875 0.40653,0.0773 0.17798,-0.0545 0.28185,-0.23643 0.28058,-0.37343 z m 1.28155,0.34757 c -0.0524,0.26091 -0.49829,0.34883 -0.71734,0.31734 0.0798,-0.0715 0.15959,-0.0829 0.23915,-0.15441 -0.0611,-0.017 -0.12226,-0.0342 -0.18342,-0.0514 0.1012,-0.0914 0.16774,-0.32872 0.26862,-0.42012 0.17698,0.0131 0.33101,0.21322 0.39299,0.3086 z m -6.64803,-4.03709 0.29184,0 c 0.48875,-0.0572 0.41537,-0.69909 0.19836,-0.88233 -0.10879,0.13909 -0.16667,0.26468 -0.23524,0.39071 -0.0698,-0.23669 -0.22011,-0.40086 -0.4031,-0.49144 -0.0112,0.0798 0.0112,0.16376 0,0.24352 -0.063,-0.053 -0.15958,-0.11044 -0.22265,-0.16372 -0.004,0.16084 0.0125,0.32188 0.0755,0.48292 -0.1673,-0.002 -0.27356,-0.006 -0.44105,0.063 0.21284,0.21531 0.36376,0.33264 0.73638,0.35731 z m -0.6019,-1.68028 c 0.19525,0.086 0.37887,0.20787 0.52916,0.42839 0.0156,-0.10217 0.0589,-0.18756 0.13017,-0.25616 0.20999,0.25598 0.4081,0.41803 0.15129,0.7223 -0.1542,-0.16828 -0.32561,-0.31461 -0.55857,-0.3822 -0.028,0.0407 -0.0559,0.0812 -0.0841,0.12189 -0.21056,-0.14197 -0.28191,-0.34655 -0.16792,-0.63422 z m 0.13434,0.69722 c 0.0364,0.14569 0.0603,0.33308 0.0968,0.47879 -0.0789,-0.0512 -0.2172,0.0112 -0.29405,0 -0.2212,-0.0583 -0.36275,-0.20934 -0.44941,-0.42426 0.21948,-0.10387 0.43441,-0.13951 0.64251,-0.0755 l 0.004,0.0209 z m -4.03149,4.67258 -0.0309,0 0,-2.02002 -0.009,0 -0.30304,0 -1.36751,0 0,0.0191 0.14567,0.23795 1.22184,0 0,0.29058 -1.04378,0 0.1575,0.25707 0.88628,0 0,0.29057 -0.70823,0 0.15756,0.25699 0.55067,0 0,0.29059 -0.74409,0 -0.22531,0.25699 0.9694,0 0,0.29039 -1.22386,0 -0.14365,0.16414 -0.0786,0.1215 3.20119,0 -1.41229,-0.45579 z m 2.74229,-1.9765 c 0.007,-0.0402 0.008,-0.0698 0.0104,-0.0846 0,-0.076 -0.0443,-0.11607 -0.11816,-0.15832 l 0.51526,0 0,0.24497 c -0.13346,0 -0.27086,-0.002 -0.40747,-0.002 z m 1.69913,-0.17344 0.0187,0.004 0.006,0 c 0.0146,-3.8e-4 0.028,0.004 0.0402,0.0105 l 0.11816,0.0274 0,-0.1117 -0.17743,0 -0.0405,0 -0.91855,0 0,0.66528 c 0.002,0.0359 0.038,0.0782 0.0951,0.10551 0.0506,0.0191 0.0844,0.0529 0.0844,0.0846 0,0.0232 -0.0232,0.0427 -0.0527,0.0427 l -0.59146,0 c -0.0298,0 -0.0529,-0.0195 -0.0529,-0.0427 0.002,-0.0297 0.0337,-0.0612 0.0846,-0.0846 0.057,-0.0253 0.0949,-0.0717 0.0949,-0.11607 l 0,-0.28413 -0.16023,0 0,-10e-4 -0.13118,0 c -0.0359,0 -0.0613,0.0318 -0.0951,0.0318 -0.0232,0 -0.0423,-0.0232 -0.0423,-0.0529 -0.0444,0.091 -0.13954,0.148 -0.24497,0.148 l -0.15838,0 c -0.0487,0 -0.10152,-0.0105 -0.15858,-0.0318 0.0676,0.18368 0.19861,0.30614 0.32746,0.30614 0.20417,0 0.23549,-0.0864 0.2666,0.13909 l -0.6255,-0.0118 c -0.10784,0 -0.21145,-0.12935 -0.24313,-0.30677 -0.0444,-0.15623 -0.1358,-0.11518 -0.1928,-0.11518 -0.0297,0.002 -0.023,-0.22986 -0.029,-0.21208 0,-0.0234 0.0491,-0.0188 0.0635,-0.0634 0.0943,3.8e-4 0.27192,0.007 0.43175,0.004 0.16869,-0.003 0.13264,-0.21101 0.001,-0.205 l -0.55174,0 0,-0.16066 2.79908,0 0.0405,0 0.16535,0 -5.8e-4,-5.9e-4 c -0.0676,-0.0246 -0.12871,-0.0707 -0.19253,-0.11562 l -0.17952,-0.12663 c -0.10986,-0.0761 -0.16476,-0.11626 -0.2029,-0.11626 -0.04,-0.002 -0.0717,0.006 -0.095,0.0211 -0.0613,0.0338 -0.10778,0.0528 -0.13719,0.0528 -0.0361,-0.002 -0.0636,-0.0147 -0.0636,-0.0317 0,-0.04 0.0211,-0.0738 0.0531,-0.0844 l 0.17926,-0.0846 c 0.0783,-0.0275 0.13124,-0.0422 0.16066,-0.0422 0.093,0 0.15851,0.0147 0.19007,0.0422 l 0.18837,0.14636 c 0.0495,-0.1076 0.18823,-0.18862 0.35257,-0.18862 l 0.28519,0 c 0.0889,-0.002 0.15238,0.006 0.19046,0.0211 l 0.1055,0.0423 c 0.0211,0.017 0.0318,0.0359 0.0318,0.0528 0,0.0126 -0.004,0.0232 -0.0106,0.0315 l -0.0528,0.0846 c -0.0168,0.0255 -0.0359,0.0423 -0.0527,0.0423 -0.0211,0.002 -0.0443,-0.0149 -0.0634,-0.0423 -0.057,-0.0676 -0.14618,-0.10551 -0.24333,-0.10551 -0.11607,-0.002 -0.2112,0.0844 -0.2112,0.19007 5.8e-4,0.0321 0.008,0.0633 0.0196,0.0906 0.002,0.006 0.005,0.0112 0.0195,0.0157 0.0812,-5.8e-4 0.12125,-0.0852 0.19109,-0.0852 0.0232,-0.002 0.0423,0.0274 0.0423,0.0633 0,0.0296 -0.0321,0.0653 -0.0846,0.0951 -0.0199,0.0114 -0.0406,0.0226 -0.0618,0.0311 l -5.9e-4,5.8e-4 0.22139,0 0,0.16066 -0.22821,0 0,0.66528 c 0.002,0.0359 0.0379,0.0782 0.0951,0.10551 0.0505,0.0191 0.0844,0.0529 0.0844,0.0846 0,0.0232 -0.0232,0.0427 -0.0526,0.0427 l -0.59153,0 c -0.0297,0 -0.0529,-0.0195 -0.0529,-0.0427 0.002,-0.0297 0.0337,-0.0612 0.0845,-0.0846 0.0368,-0.0164 0.066,-0.0416 0.0817,-0.0694 -0.0896,0.0595 -0.2131,0.0908 -0.3563,0.0908 -0.26838,-0.002 -0.48577,-0.17123 -0.48577,-0.38034 -0.002,-0.18589 0.18355,-0.33807 0.41177,-0.33807 l 0.26262,0 -0.002,-0.004 z m 0.18287,0.24517 c -0.0342,-0.0157 -0.13561,-0.0612 -0.16895,-0.0823 -0.0337,-0.0211 -0.0717,-0.0317 -0.1057,-0.0317 l -0.0632,0 c -0.0992,0 -0.17964,0.0949 -0.17964,0.21119 0,0.12872 0.11834,0.23233 0.2642,0.23233 0.0923,0 0.17951,-0.0245 0.25333,-0.0703 l 0,-0.25927 z m 5.6823,0.0338 c -0.0992,10e-4 -0.17951,-0.0655 -0.17951,-0.14776 0,-0.0825 0.0803,-0.14883 0.17951,-0.14801 0.0993,10e-4 0.1795,0.0719 0.1795,0.15857 0,0.076 -0.0804,0.13618 -0.1795,0.1372 z m 0,0.54966 c -0.0992,0 -0.17951,-0.0617 -0.17951,-0.13764 0,-0.0825 0.0759,-0.14795 0.16894,-0.14795 0.10551,0 0.19007,0.0613 0.19007,0.13738 0,0.0823 -0.0802,0.14821 -0.1795,0.14821 z m -0.90432,-0.89805 0,0.65471 c 0,0.0443 -0.0379,0.0908 -0.0949,0.11607 -0.0508,0.0234 -0.0825,0.0549 -0.0846,0.0846 0,0.0232 0.0232,0.0427 0.0529,0.0427 l 0.59147,0 c 0.0295,0 0.0527,-0.0195 0.0527,-0.0427 0,-0.0317 -0.0337,-0.0655 -0.0844,-0.0846 -0.057,-0.0273 -0.0931,-0.0696 -0.0951,-0.10551 l 0,-0.66527 0.22821,0 0,-0.16067 -4.26097,0 0,0.16067 1.35284,0 0,0.15832 -0.77496,0 -0.007,0.15547 c 0.25717,-0.005 0.26337,0.32081 -0.005,0.34484 -0.28438,-0.007 -0.29596,-0.21347 -0.22031,-0.27476 l -5.9e-4,-0.10265 -0.17722,0.005 c -0.2527,0.0949 -0.3016,0.43695 0.0494,0.59381 0.10007,0.0674 0.40057,0.0599 0.58716,0.0253 0.13992,-0.044 0.27629,-0.13909 0.27629,-0.30803 0,-0.14359 -0.0236,-0.27421 -0.16085,-0.31235 l 0.43277,0 0,0.36978 c 0,0.0443 -0.0381,0.0908 -0.0951,0.11607 -0.0505,0.0234 -0.0823,0.0549 -0.0844,0.0846 0,0.0232 0.0232,0.0427 0.0529,0.0427 l 0.59153,0 c 0.0294,0 0.0526,-0.0195 0.0526,-0.0427 0,-0.0317 -0.0338,-0.0655 -0.0846,-0.0846 -0.057,-0.0273 -0.0928,-0.0697 -0.0949,-0.10552 l 0,-0.66527 1.25398,0 0,0.24288 -0.80419,0 c -0.1098,0 -0.23422,0.12334 -0.20064,0.2811 0,0.12891 0.0993,0.30234 0.22177,0.30234 l 0.1055,0 c 0.0287,0.0755 0.64213,-0.0199 0.56459,-0.34422 -0.004,-0.0201 -0.11607,-0.0643 -0.18881,-0.0324 -0.0316,0.0139 -0.0605,0.0991 -0.0949,0.10779 -0.0676,0.0172 -0.10525,0.0251 -0.15111,0.0201 -0.13903,-0.0147 -0.11954,-0.17306 -0.0458,-0.20209 l 0.59362,-0.006 0,0.28521 c 0,0.0443 -0.0381,0.0908 -0.0951,0.11607 -0.0506,0.0234 -0.0823,0.0549 -0.0844,0.0846 0,0.0232 0.0232,0.0427 0.0529,0.0427 l 0.59134,0 c 0.0296,0 0.0528,-0.0195 0.0528,-0.0427 0,-0.0317 -0.0337,-0.0655 -0.0846,-0.0846 -0.057,-0.0273 -0.0928,-0.0697 -0.0951,-0.10552 l 0,-0.66527 0.41202,0 z m 2.96393,0.24288 c 4.5e-4,-0.0916 5.7e-4,-0.1513 5.8e-4,-0.24288 -0.1716,1.8e-4 -0.3434,1.8e-4 -0.51525,0 0.0739,0.0422 0.11999,0.0823 0.11815,0.15832 -2.5e-4,0.0149 -0.005,0.0444 -0.0104,0.0846 l 0.40665,0 z m -4.605,-5.90099 0.0429,-0.0479 c -0.0155,-0.04 -0.0302,-0.0804 -0.0447,-0.12062 l 0.002,0.1685 z m -0.15085,0.67255 c -0.055,-0.10819 -0.10639,-0.21825 -0.15466,-0.32995 l 0.1575,-0.1766 0.005,-0.79713 c -0.0424,-0.16395 -0.0775,-0.33059 -0.10486,-0.49992 l -0.49698,-0.16394 c -0.009,-0.0763 -0.0166,-0.15295 -0.0228,-0.23027 l -0.62321,4.13595 1.22948,0 0.0111,-1.93814 z m 1.26573,1.01602 c -0.0676,-0.074 -0.13352,-0.15007 -0.19709,-0.22799 l -0.51196,0.10654 c -0.14345,-0.19028 -0.27546,-0.38966 -0.39545,-0.59652 l 0.018,1.64009 1.22924,0 -0.14276,-0.92212 z m 2.54355,-0.95963 0.0333,0.0282 0.10614,0.008 0.0982,0 0.0776,0 c 0.0205,-0.008 0.0368,-0.008 0.0572,-0.008 0.007,0 0.0209,0.002 0.0344,0.005 0.004,-0.0191 0.005,-0.0373 0.005,-0.0539 0.007,-0.0106 0.0149,-0.0215 0.026,-0.0333 0.0391,-0.008 0.0966,-0.0184 0.0954,-0.1086 5.9e-4,-0.0864 0.009,-0.34634 0.0284,-0.53555 0.0222,-0.21642 0.0246,-0.42885 0.0593,-0.5213 l -0.0149,-0.0325 -0.0526,-0.37306 c -0.14365,0.1092 -0.26117,0.13843 -0.38325,0.13928 -0.003,0.0442 -0.002,0.0761 0.008,0.0879 0.0462,0.0817 0.0576,0.19193 0.0742,0.31192 0.0339,0.24561 -0.0239,0.61229 -0.0249,0.79818 -0.0101,0.0593 -0.0827,0.0844 -0.16988,0.19816 l -0.0456,0.0715 c -0.004,0.006 -0.008,0.0122 -0.012,0.0181 z m -5.10095,2.06268 2.74374,0 0,0.17723 c 0,0.0976 -0.0798,0.1772 -0.17742,0.1772 l -2.38896,0 c -0.0978,0 -0.17736,-0.0796 -0.17736,-0.1772 l 0,-0.17723 z m 6.45334,7.40784 c -2.59516,-0.0321 -4.99981,-0.88002 -6.96885,-2.29813 l -0.60583,0 c 2.09814,1.63817 4.7248,2.62768 7.57443,2.66208 l 2.5e-4,-0.36395 z m 0,-0.55629 c -2.18497,-0.0284 -4.22801,-0.66282 -5.96877,-1.74184 l -0.38077,0 c 1.82994,1.20419 4.00973,1.91717 6.34929,1.94703 l 2.5e-4,-0.20519 z m -2.5e-4,-3.98506 -0.0667,0 0,0.66527 c -0.0274,0.14448 0.0172,0.20691 0.0669,0.23151 l -2.6e-4,-0.89678 z m 0,-0.98867 -12.14684,0 0,2.7305 12.14684,0 0,-0.3157 -0.59938,0 c -0.0187,0 -0.0369,-5.6e-4 -0.055,-0.001 2.5e-4,-0.0736 2.5e-4,-0.14731 0,-0.22094 0.0255,0.004 0.0331,2.6e-4 0.0583,2.6e-4 l 0.0709,0.0864 0.28502,0.009 c 0.116,0 0.21119,-0.057 0.21119,-0.12664 -0.002,-0.0698 -0.0908,-0.1625 -0.20064,-0.1625 l -0.0635,0 c -0.16895,0 -0.0995,0.0126 -0.11208,-0.029 1.2e-4,-0.10879 3.8e-4,-0.21784 3.8e-4,-0.32644 0,-0.0941 -2.6e-4,-0.18818 -3.8e-4,-0.2823 -0.097,-10e-4 -0.194,-0.002 -0.29103,-0.003 -0.0358,0 -0.0611,0.0318 -0.0952,0.0318 -0.0232,0 -0.042,-0.0232 -0.042,-0.0529 -0.0446,0.091 -0.13954,0.14801 -0.24523,0.14801 -0.0529,-2.5e-4 -0.10544,-2.5e-4 -0.15838,0 -0.0486,0 -0.10152,-0.0106 -0.15851,-0.0318 0.0676,0.18368 0.19855,0.30614 0.32745,0.30614 l 0.27035,0 c 0.0503,-10e-4 0.10378,-0.025 0.1554,-0.068 l 0,0.19527 c -0.13681,0.0636 -0.27381,0.0595 -0.41063,0.0595 -0.12474,0 -0.26009,-0.0172 -0.37407,-0.0595 -0.15029,-0.0636 -0.21146,-0.12936 -0.24295,-0.30678 -0.0445,-0.15623 -0.10025,-0.12719 -0.15731,-0.12719 -0.0294,0.002 -0.0468,0.0203 -0.0468,-0.0156 l 0.004,-0.23613 c 0.3358,-0.008 0.35173,0.004 0.54137,0.004 0.0928,0.002 0.20475,-0.0191 0.20475,-0.12473 -0.002,-0.10967 -0.0898,-0.0914 -0.17635,-0.0914 -0.21556,1.8e-4 -0.43113,1.8e-4 -0.64669,0 l 0,-0.16067 1.94702,0 0,-0.828 z m -4.66837,-6.6936 c 0.32499,1.10723 0.9026,2.51496 1.7147,3.05507 l 0.8007,0.0137 c 0.16078,0.002 0.40038,-0.0605 0.5749,-0.0665 0.008,-2e-4 0.0146,5.8e-4 0.0204,0.002 l -0.0442,0.0694 c 0.0928,5.9e-4 0.12498,-0.0495 0.1246,0.0431 0.0435,0.0425 0.315,-0.004 0.41911,-0.0431 0.0236,0.002 0.0706,-10e-4 0.0582,0.007 -0.1148,0.0748 -0.29823,0.20333 -0.46989,0.20146 -0.30753,-0.004 -0.57471,0.10902 -0.69242,0.23213 0.13719,-0.0504 0.33346,-0.0808 0.48495,-0.0945 0.21082,0.013 0.48648,-0.1884 0.64878,-0.28457 l -0.0508,0.10427 c 0.007,0.013 0.10385,0.0153 0.14965,5.8e-4 0.003,0.0191 -0.023,0.0235 -0.0187,0.0518 0.0427,0.029 0.14592,0.027 0.24225,0.006 0.008,0.0174 0.0118,0.0228 0.0176,-0.004 0.0883,-0.0216 0.16724,-0.0585 0.18261,-0.10197 0.0208,-0.0577 0.0642,-0.1592 0.0771,-0.24481 0.12625,0.005 0.27609,0.002 0.42923,-0.001 l -1.9e-4,-2.05233 c -0.15028,0.31443 -0.24643,0.72995 -0.20209,0.76314 -0.0406,0.0833 -0.0547,0.32644 -0.0784,0.55506 -0.0193,0.18944 -0.0524,0.36769 -0.0531,0.45412 5.8e-4,0.0902 -0.019,0.15895 -0.0582,0.16724 -0.0166,0.0178 -0.0276,0.034 -0.0346,0.0491 -4.4e-4,-0.004 -5.9e-4,-0.008 -0.001,-0.0126 -0.18059,0.0439 -0.37705,0.11379 -0.44195,0.046 -0.008,-0.004 -0.004,-0.0187 -0.003,-0.0301 l 0.0616,-0.0906 c 0.0825,-0.0485 0.15048,-0.14589 0.16066,-0.20517 5.9e-4,-0.1857 0.0982,-0.55569 0.0643,-0.80149 -0.0169,-0.12002 -0.0603,-0.22698 -0.10652,-0.30864 -0.0485,-0.0576 0.12265,-0.57888 -0.12732,-0.64871 -0.0333,0.25326 -0.0755,0.17824 -0.13549,0.25636 -0.13289,0.0385 -0.26597,0.0852 -0.39052,-0.004 -0.0649,0.0249 -0.19937,-0.21951 -0.19297,-0.25908 0.001,-0.15958 0.003,-0.31047 0.004,-0.4614 -0.0767,0.035 -0.1625,0.26738 -0.19837,0.32645 -0.29101,0.12126 -0.38805,-0.12312 -0.38653,-0.46468 -0.0968,0.098 -0.17786,0.28685 -0.32871,0.0682 0.0395,-0.0964 -0.0111,-0.18261 -0.0755,-0.25845 0.0354,1.9e-4 0.0651,-0.0125 0.0901,-0.0344 l -0.82101,0 c -0.005,4e-4 -0.0105,5.8e-4 -0.0159,10e-4 -0.075,0.0968 -0.0909,0.24683 -0.1303,0.36749 -0.0591,0.0877 -0.25579,0.0916 -0.34618,0.0329 -0.0197,-0.0556 0.0879,-0.1198 0.0682,-0.17537 -0.0649,0.0355 -0.0591,0.10677 -0.10051,0.16022 -0.028,-0.006 -0.10259,0.004 -0.13017,-0.0653 -0.23522,0.11337 -0.32353,-0.0701 -0.37844,-0.26677 0.008,-0.0172 0.017,-0.0355 0.0273,-0.0543 l -0.40747,-4.1e-4 z m -1.20318,0 -0.74511,4.63257 -1.9e-4,0 c -0.0539,0 -0.098,0.0442 -0.098,0.098 0,0.0516 0.0404,0.0939 0.0911,0.0976 l 0,0.1648 c 0,0.17429 0.12979,0.3167 0.2881,0.3167 l 2.50877,0 c 0.15851,0 0.28824,-0.14241 0.28824,-0.3167 l 0,-0.16936 c 0.0396,-0.0124 0.0684,-0.0495 0.0684,-0.093 0,-0.0462 -0.0325,-0.0852 -0.0758,-0.0954 l -0.12398,-0.68935 c 0.11753,0.11461 0.24023,0.22426 0.3675,0.32809 l -0.10677,0.51297 c 0.37641,0.28273 0.78704,0.5223 1.22474,0.7107 l 0.39046,-0.34839 c 0.34574,0.13264 0.70804,0.2313 1.083,0.2914 l 0.16395,0.49681 c 0.18033,0.0213 0.36269,0.0355 0.54738,0.0407 l -3.8e-4,-1.10701 c -2.61116,-0.0866 -4.71341,-2.24051 -4.71695,-4.87113 l -1.15447,0 z m -6.56428,0 c 0,2.25629 0.59943,4.37722 1.64656,6.21213 l -2.01337,0 0,1.31839 -2.34999,0 1.06908,1.74437 -1.2498,1.4264 4.76705,0 0,-0.79964 5.95555,0 c -0.0249,0.0281 -0.18008,0.093 -0.14238,0.10323 0.24725,0.0669 0.50197,0.12018 0.70905,0.11954 -0.0208,0.0782 -0.18716,0.15465 -0.20791,0.23302 0.24143,0.0306 0.65864,0.058 0.96377,0.0437 -0.0363,0.12847 -0.12789,0.0684 -0.24997,0.1625 0.23675,-5.9e-4 0.43758,0.0227 0.69539,-0.0236 -0.0365,0.0894 -0.11195,0.12728 -0.14838,0.21684 0.28583,-0.0224 0.57287,0.007 0.82651,-0.0844 -0.0155,0.0615 -0.12492,0.14883 -0.14067,0.21018 0.92955,-0.0504 1.31443,-0.0209 1.90059,-0.45744 0.0931,0.0804 0.18678,0.14466 0.27711,0.20083 -0.28559,0.18445 -0.53202,0.36085 -0.55358,0.56667 0.0727,0.0501 0.21391,0.006 0.28665,0.0566 0.0574,-0.1921 0.20665,-0.32929 0.39482,-0.45593 l 0,-0.28747 c -0.27818,-0.17704 -0.52664,-0.36832 -0.55965,-0.60419 l 0.5594,0 0,-0.25471 -12.39763,0 0,-3.17614 12.39763,0 0,-0.25866 -5.42347,0 c -0.27648,-10e-4 -0.55295,-0.003 -0.82943,-0.004 -0.14409,-0.1486 -0.28293,-0.30237 -0.41639,-0.46053 l 0,-0.004 c -0.001,0 -0.002,-2.2e-4 -0.004,-2.2e-4 -1.31051,-1.55426 -2.10224,-3.55893 -2.10224,-5.74309 l -0.23505,0 c 0,2.39349 0.92646,4.577 2.43843,6.21213 l -0.60893,0 c 0.0565,-0.14013 -0.0508,-0.34902 -0.0997,-0.49764 l -0.25807,0.25865 c 0.0435,-0.23438 0.046,-0.40165 -0.0644,-0.61308 l -0.0591,-0.25266 -0.1494,0.0442 c 0.0783,-0.26841 -0.29931,-0.47774 -0.34827,-0.77743 l -0.22732,0.36519 c -0.13056,-0.21288 -0.32936,-0.28935 -0.61266,-0.46219 -0.0924,0.37638 -0.18552,0.59568 0.0719,0.81804 -0.31297,0.0325 -0.43385,-0.0551 -0.7379,0.0831 l 0.17805,0.22139 c 0.0692,0.14465 0.31981,0.26508 0.45289,0.35835 l -0.40873,0.0236 0.35832,0.24478 c 0.0877,0.0796 0.18324,0.14011 0.28501,0.18571 l -0.91653,0 c -1.13865,-1.80072 -1.79926,-3.9318 -1.79926,-6.21213 l -0.205,0 c 0,2.27473 0.64606,4.4029 1.76303,6.21213 l -0.41039,0 c -1.08128,-1.82248 -1.70393,-3.94673 -1.70393,-6.21213"
           style="fill:#254aa5;fill-opacity:1;fill-rule:evenodd;stroke:none"
           id="path222"
           inkscape:connector-curvature="0" />
        <path
           d="m 200.60098,567.37588 0.5014,0.005 10e-4,-0.16186 c 0.001,-0.10861 -0.005,-0.18216 -0.0203,-0.22158 -0.0147,-0.0387 -0.0421,-0.0713 -0.0817,-0.0964 -0.0395,-0.0255 -0.088,-0.0383 -0.14611,-0.039 -0.0584,-5.8e-4 -0.10835,0.0116 -0.14858,0.0367 -0.0406,0.0255 -0.0676,0.057 -0.0821,0.0945 -0.0141,0.0377 -0.0214,0.11775 -0.0226,0.23983 l -0.001,0.14237 z m 1.46555,0.30738 -1.76776,-0.0187 0.005,-0.47069 c 0.002,-0.17514 0.0116,-0.28953 0.0292,-0.34323 0.0279,-0.0856 0.0873,-0.15586 0.17659,-0.21076 0.0899,-0.0552 0.205,-0.0819 0.34593,-0.0805 0.12789,10e-4 0.23485,0.0267 0.32062,0.0759 0.0858,0.0491 0.14567,0.11026 0.18008,0.18303 0.0343,0.0723 0.0505,0.19731 0.0485,0.37432 l -0.002,0.19172 0.66655,0.007 -0.003,0.29162 z m -0.86428,-1.467 c 0.19008,0.0489 0.34175,0.0493 0.45535,0.002 0.1136,-0.0479 0.18426,-0.12479 0.21184,-0.23172 0.0275,-0.10737 0.003,-0.20828 -0.073,-0.30342 -0.0761,-0.0949 -0.21164,-0.16727 -0.40709,-0.21743 -0.19152,-0.0493 -0.342,-0.0516 -0.45168,-0.006 -0.10918,0.045 -0.178,0.12311 -0.20658,0.23444 -0.0288,0.11107 -0.006,0.21366 0.0686,0.30715 0.0746,0.0939 0.20873,0.1656 0.40253,0.21557 z m -0.0613,0.28438 c -0.1969,-0.0506 -0.3513,-0.12106 -0.46364,-0.21247 -0.11234,-0.0908 -0.1878,-0.19148 -0.22594,-0.30136 -0.0383,-0.10984 -0.04,-0.23172 -0.006,-0.36563 0.0499,-0.19377 0.16433,-0.33264 0.34385,-0.41679 0.1795,-0.0837 0.40626,-0.0908 0.67963,-0.0201 0.27622,0.0709 0.47566,0.19112 0.59792,0.36045 0.10842,0.14902 0.13739,0.32043 0.0872,0.51506 -0.0504,0.19627 -0.15832,0.33327 -0.32328,0.41183 -0.18888,0.0893 -0.41892,0.0989 -0.69021,0.029 z m 1.19508,-1.21232 -1.67156,-0.57556 0.20057,-0.58262 c 0.0512,-0.14902 0.10323,-0.21597 0.15503,-0.26944 0.0521,-0.0535 0.12233,-0.0881 0.21038,-0.10364 0.0885,-0.0156 0.18406,-0.005 0.28729,0.0302 0.1308,0.045 0.22574,0.11233 0.28375,0.20272 0.0583,0.0904 0.0776,0.16227 0.0583,0.28457 0.0632,-0.0444 0.0827,-0.0713 0.1463,-0.0924 0.0641,-0.0212 0.17642,0.005 0.32999,0.0288 l 0.29577,0.0464 -0.10715,0.34487 -0.32664,-0.0779 c -0.10385,-0.0249 -0.30012,-0.0266 -0.37868,0.058 -0.0224,0.0242 -0.0446,0.0686 -0.0665,0.13244 l -0.0196,0.0572 0.69785,0.24023 -0.0949,0.27606 z m -0.86984,-0.6081 0.0706,-0.2056 c 0.0433,-0.12521 0.0622,-0.15048 0.0631,-0.1884 5.8e-4,-0.0381 -0.0116,-0.0736 -0.038,-0.10633 -0.0259,-0.0325 -0.0671,-0.0589 -0.12246,-0.0779 -0.0531,-0.0182 -0.0999,-0.0222 -0.13928,-0.0122 -0.0398,0.0102 -0.0717,0.0315 -0.0964,0.0638 -0.0174,0.0228 -0.0442,0.0402 -0.0866,0.16395 l -0.0748,0.21679 0.42392,0.14592 z m 1.05517,-1.62618 -0.67282,-0.0773 0.48711,0.44169 0.18571,-0.36436 z m 0.87047,-0.21847 -0.14946,0.29308 -0.41411,-0.0429 -0.27173,0.53327 0.29873,0.26946 -0.1461,0.28688 -1.29604,-1.22266 0.14548,-0.28543 1.83323,0.16832 z m 0.0276,-0.0272 -1.23177,-0.79981 -0.23441,0.36103 -0.25099,-0.1629 0.62714,-0.96586 0.25099,0.16294 -0.23378,0.36003 1.23177,0.79979 -0.15895,0.24478 z m 0.40955,-0.62862 -1.43038,-1.03901 0.17167,-0.23606 1.43007,1.03901 -0.17136,0.23606 z m -0.25863,-1.15859 c 0.14901,0.12166 0.28514,0.1863 0.40892,0.19399 0.12372,0.008 0.22195,-0.0276 0.29494,-0.10633 0.0731,-0.079 0.0966,-0.17473 0.0708,-0.28726 -0.0257,-0.11255 -0.11524,-0.2309 -0.26838,-0.3561 -0.15028,-0.12268 -0.28457,-0.18795 -0.4038,-0.19628 -0.11827,-0.008 -0.21575,0.0288 -0.29134,0.1107 -0.0759,0.0819 -0.10158,0.17846 -0.0765,0.28893 0.0249,0.11088 0.11335,0.22818 0.26535,0.35235 z m -0.18324,0.21452 c -0.15441,-0.12603 -0.2618,-0.25102 -0.32171,-0.37556 -0.0605,-0.12436 -0.0829,-0.24127 -0.0679,-0.35029 0.0153,-0.10924 0.0683,-0.21307 0.1597,-0.31152 0.13207,-0.14279 0.29748,-0.21183 0.4971,-0.20705 0.19937,0.005 0.40639,0.0949 0.62069,0.27005 0.21664,0.17701 0.34226,0.36295 0.37604,0.55776 0.0306,0.17182 -0.0208,0.32893 -0.15339,0.47236 -0.13371,0.14444 -0.29248,0.21471 -0.47635,0.21139 -0.21012,-0.004 -0.42152,-0.0932 -0.63416,-0.26714 z m 1.63341,-0.44811 -1.13638,-1.35426 0.21822,-0.18302 1.21311,0.52294 -0.75877,-0.9041 0.20866,-0.17513 1.13646,1.35406 -0.2255,0.18921 -1.18825,-0.508 0.74118,0.88315 -0.20873,0.17515 z m 1.35758,-1.98748 0.22903,0.41311 0.23777,-0.13163 c 0.1038,-0.0576 0.16768,-0.0999 0.19108,-0.12704 0.0234,-0.0271 0.0365,-0.0626 0.0388,-0.10592 0.002,-0.0429 -0.0101,-0.0889 -0.0374,-0.13824 -0.0282,-0.0506 -0.0618,-0.086 -0.10139,-0.10715 -0.0396,-0.0208 -0.0806,-0.0276 -0.1227,-0.0204 -0.0424,0.007 -0.11854,0.0417 -0.22796,0.1024 l -0.20709,0.11481 z m -0.34074,-0.61493 0.19817,0.35753 0.1687,-0.0937 c 0.10113,-0.056 0.16293,-0.0927 0.18507,-0.10946 0.0395,-0.0311 0.0635,-0.0682 0.0717,-0.1117 0.008,-0.0435 -0.002,-0.091 -0.0311,-0.1426 -0.0252,-0.0456 -0.0555,-0.0773 -0.0914,-0.0945 -0.036,-0.0174 -0.0698,-0.0215 -0.10234,-0.0131 -0.0321,0.009 -0.11588,0.0506 -0.25079,0.1254 l -0.14801,0.0821 z m -0.39798,-0.11587 0.5076,-0.28144 c 0.13827,-0.0765 0.24276,-0.11816 0.31323,-0.12353 0.07,-0.006 0.14237,0.0122 0.21682,0.0549 0.0737,0.0423 0.13346,0.10427 0.17825,0.18488 0.0412,0.0744 0.0619,0.15089 0.0621,0.22945 2.6e-4,0.0786 -0.0178,0.14674 -0.0545,0.20478 0.09,-0.0151 0.17407,-0.002 0.25244,0.0394 0.0786,0.0407 0.14365,0.10778 0.19508,0.20063 0.0621,0.11234 0.0878,0.22302 0.0767,0.33017 -0.011,0.10779 -0.0485,0.19112 -0.11214,0.25039 -0.0444,0.0412 -0.16003,0.11357 -0.34675,0.2172 l -0.4317,0.23939 -0.85712,-1.5462 z m 2.45158,-0.018 -0.42119,-0.54114 0.0521,0.68293 0.36914,-0.14179 z m 0.75377,0.45971 -0.29722,0.11421 -0.26218,-0.32976 -0.54029,0.20749 0.0325,0.41784 -0.29058,0.11149 -0.10671,-1.85272 0.28932,-0.11088 1.17515,1.44233 z m 0.11879,-0.0479 -0.3229,-1.73792 0.28002,-0.052 0.79875,1.05207 -0.2157,-1.16045 0.26801,-0.0498 0.32283,1.73792 -0.28931,0.0536 -0.78452,-1.02677 0.21082,1.1335 -0.268,0.0497 z m -1.71824,8.46611 c 0.0135,0.0465 0.004,0.007 0.0127,0.0474 0.0317,0.14197 0.0419,0.15254 0.005,0.31048 -0.0367,0.15793 0.0157,0.14218 -0.0945,0.27896 -0.11025,0.13682 -0.15212,0.14716 -0.15212,0.14716 0,0 0.0476,-0.0332 -0.0264,-0.15253 -0.0369,-0.0595 -0.11254,-0.42363 -0.0195,-0.70241 l 0.27457,0.0709 z m 2.89511,-3.82899 -0.19691,0.59818 -0.87199,0.0802 0.2193,-0.32394 c 0.1988,-0.11092 0.41474,-0.20851 0.61974,-0.29144 0.0156,-0.006 0.21449,-0.0568 0.22986,-0.063 z m -2.38688,3.72681 c 0.0367,-0.0551 0.001,-0.11812 0.0787,-0.19273 0.0305,-0.0385 0.14283,-0.0948 0.21619,-0.0633 -0.035,0.0769 -0.007,0.15671 -0.0692,0.2249 -0.0765,0.0628 -0.17357,0.005 -0.22575,0.0311 z m -1.20419,-2.13232 c 0.004,-0.007 0.009,-0.0149 0.0135,-0.0224 l -0.006,-0.038 -0.008,0.0603 z m -0.0956,1.32813 c 0.0261,-0.0786 0.0539,-0.15667 0.0834,-0.234 l -0.0871,-0.0976 0.004,0.33162 z m -0.1482,-1.47405 c -0.009,-0.001 -0.0174,-0.002 -0.0259,-0.004 l -0.36731,2.43701 0.33371,-0.10987 c 0.0305,-0.18963 0.0706,-0.37593 0.12025,-0.55855 l 0.004,-0.71133 -0.18115,-0.20313 c 0.047,-0.10962 0.0976,-0.21784 0.1511,-0.32395 l -0.0347,-0.52603 z m 0.44169,-0.1631 -0.0672,-0.002 c -0.0351,0.05 -0.0819,0.0912 -0.13574,0.12044 l 0.0279,0.15294 c 0.0559,-0.0922 0.11436,-0.1828 0.17508,-0.27148 z m 4.7573,-8.0033 -0.3871,0.0134 -0.56458,0.8052 -0.0274,-0.78448 -0.29166,0.0101 0.0618,1.76672 0.29166,-0.0102 -0.0187,-0.5339 0.22688,-0.30364 0.42803,0.81538 0.28103,-0.01 0,-0.17183 -0.51481,-0.88998 0.51481,-0.69764 0,-0.009 z m -5.87155,11.33836 0.51879,-3.22563 c -0.11588,-0.0699 -0.19316,-0.19735 -0.19273,-0.34137 5.9e-4,-0.21867 0.17989,-0.39691 0.39874,-0.39609 0.12335,4.1e-4 0.23379,0.0578 0.30652,0.14738 l 1.16175,-0.0786 c 0.11999,-0.11774 0.24542,-0.23008 0.37578,-0.33663 l -0.10633,-0.51129 c 0.3766,-0.28334 0.78737,-0.52294 1.22469,-0.71134 l 0.39026,0.34821 c 0.34574,-0.13245 0.70824,-0.23049 1.083,-0.29099 l 0.16086,-0.48812 c 0.14876,-0.0589 0.33429,-0.0964 0.55086,-0.10841 l -1.9e-4,1.40694 c -0.013,0.11686 -0.0203,0.24953 -0.0203,0.39005 0,0.10965 0.004,0.21451 0.0122,0.31091 -1.64423,0.0276 -3.28803,0.10364 -4.93245,0.22467 -0.036,-0.0786 -0.11525,-0.13473 -0.20722,-0.13491 -0.12644,-4.4e-4 -0.22992,0.10237 -0.23011,0.22836 -5.8e-4,0.12645 0.10197,0.22986 0.22841,0.23027 0.0896,4.1e-4 0.16749,-0.0518 0.20518,-0.12723 1.65335,0.0213 3.30087,0.0222 4.94409,0.002 l 2e-4,0.18217 c -0.32499,-0.007 -0.64606,-0.0143 -0.98389,-0.0213 -0.10733,0.0663 -0.13883,0.15151 -0.34219,0.31482 0.001,-0.0557 -0.0626,-0.13017 -0.0999,-0.11296 -0.13352,0.0616 -0.31025,0.11898 -0.45162,0.27296 0.052,-0.17884 0.0522,-0.31916 0.097,-0.47916 -0.49849,0.008 -1.06472,0.007 -1.59762,-0.0388 -0.005,5.9e-4 -0.0103,10e-4 -0.0156,0.002 -0.48603,0.51793 -0.8608,1.1416 -1.08566,1.832 -0.0143,0.0649 -0.0461,0.12229 -0.038,0.1969 0.0918,-0.13824 0.19027,-0.21825 0.34675,-0.29824 -0.0423,-0.0823 -0.003,-0.27837 0.0411,-0.39462 0.10069,-0.31797 0.33226,-0.51943 0.51898,-0.63009 -0.0705,0.19482 -0.20336,0.44352 -0.10133,0.65599 0.10917,0.046 0.23131,0.0661 0.34029,0.11234 l 0.12063,0 c 0.0715,-0.22781 0.0871,-0.46181 -0.0302,-0.74015 0.38735,0.0939 0.48875,0.36541 0.51443,0.77038 0.0978,-0.0176 0.22732,-0.0671 0.32517,-0.0843 0.0628,-0.0125 0.11917,0.15298 0.19709,0.0532 0.0745,-0.0949 0.18862,-0.0477 0.32771,-0.0557 0.20462,-0.012 0.33948,-0.10509 0.5076,-0.1998 0.38716,-0.21804 0.65244,-0.58512 0.93373,-0.57889 0.15996,-0.0247 0.2759,0.25016 0.47546,0.44311 l 1.9e-4,0.17761 c -0.19444,-0.16205 -0.31999,-0.39979 -0.43998,-0.43584 -0.38368,-0.11464 -0.79286,0.76852 -1.76409,0.7594 0.007,0.0898 -0.0269,0.23815 -0.10362,0.26387 0.13954,0.006 0.43917,0.21369 0.47256,0.36208 -0.15503,0.26363 -0.30216,0.096 -0.33821,0.3192 -0.12915,0.0462 -0.0858,0.66073 -0.26097,0.81411 l -0.82102,0 c 0.13972,-0.0108 0.26889,-0.0128 0.39223,-0.0698 0.21759,-0.27793 0.42467,-0.5306 0.48495,-0.77639 -0.15693,-0.057 -0.33473,-0.16148 -0.34902,-0.24916 0.25244,0.0966 0.54011,0.0155 0.7453,-0.0537 -0.0713,-0.1822 -0.34359,-0.32395 -0.69779,-0.23672 0.0965,-0.0576 0.1931,-0.11458 0.28969,-0.17201 0.009,-0.17389 -0.0518,-0.26095 -0.18319,-0.26095 -0.22529,0.16231 -0.44003,0.26923 -0.63301,0.17805 -0.0476,-0.0212 -0.0968,-0.13267 -0.14738,-0.12561 -0.24934,0.0344 -0.2804,-0.0788 -0.38483,-0.13533 -0.19298,0.0991 -0.38223,0.2514 -0.43195,0.44456 -0.0118,0.12252 -0.006,0.15007 -0.0297,0.26677 -0.0213,0.13305 0.0416,0.24412 0.10051,0.36167 0.004,0.21139 -0.0218,0.4286 -0.0471,0.6224 -0.0277,0.0618 -0.0775,0.13824 -0.11479,0.20642 l -0.40748,-4e-4 c -0.0159,-0.0545 -0.0315,-0.10839 -0.0462,-0.16146 -10e-4,0.0514 -0.002,0.10323 -0.002,0.15503 l 0,0.006 -1.15447,0 z m -3.13856,0 c 0,-4.99549 4.03313,-9.079 9.00948,-9.16167 l 5.9e-4,0.28021 c -0.70488,0.0122 -1.3906,0.10632 -2.04778,0.27296 -0.0365,-1.9e-4 -0.0719,-4.1e-4 -0.1014,-4.1e-4 l 0,0.0267 c -0.0424,0.0112 -0.0849,0.0228 -0.1272,0.0349 -0.0467,-2.3e-4 -0.0933,-5.9e-4 -0.13966,-5.9e-4 -2.5e-4,0.0126 -2.5e-4,0.0254 -2.5e-4,0.0414 -0.0224,0.007 -0.0447,0.0137 -0.0669,0.0205 -0.0447,-1.9e-4 -0.0869,-5.9e-4 -0.12898,-5.9e-4 l 0,0.0417 c -0.0294,0.01 -0.0589,0.0192 -0.0882,0.0292 -0.0369,-2.2e-4 -0.0724,-5.9e-4 -0.10758,-5.9e-4 l 0,0.0376 c -0.023,0.008 -0.046,0.0161 -0.0688,0.0242 -0.0386,-1.9e-4 -0.0748,-4.2e-4 -0.11107,-5.8e-4 -0.005,0.002 -0.0108,0.004 -0.016,0.006 -1.9e-4,0.0125 -1.9e-4,0.0253 -1.9e-4,0.0415 -0.0129,0.005 -0.0255,0.01 -0.0383,0.0145 -0.0318,0 -0.0635,-1.9e-4 -0.0951,-4.1e-4 -2.6e-4,0.0101 -2.6e-4,0.0232 -2.6e-4,0.0375 -0.0275,0.011 -0.0549,0.022 -0.0823,0.0332 -0.0335,-2.3e-4 -0.0659,-4.3e-4 -0.0978,-5.9e-4 -0.005,0.002 -0.0104,0.005 -0.0157,0.007 0,0.012 0,0.0249 -1.9e-4,0.0408 -0.0112,0.005 -0.0224,0.009 -0.0336,0.0143 -0.0103,-2.2e-4 -0.0195,-2.2e-4 -0.0286,-2.2e-4 -1.9e-4,0.004 0,0.008 0,0.0122 -0.0377,0.0164 -0.075,0.0328 -0.11233,0.0495 -0.0284,-1.9e-4 -0.0561,-5.8e-4 -0.0837,-5.8e-4 l 0,0.0387 c -1.28584,0.59239 -2.41009,1.47883 -3.28556,2.57259 2e-4,-10e-4 0,-0.002 0,-0.003 -0.0357,0.0456 -0.0711,0.0916 -0.10588,0.13782 -0.0469,0.061 -0.0929,0.1223 -0.13827,0.18426 l 0.004,-5.9e-4 c -1.04237,1.46086 -1.65711,3.24643 -1.65711,5.17128 l -0.23505,0 z m -2.71066,0 c 0,-6.48839 5.25067,-11.78979 11.72014,-11.87249 l 0,0.20497 c -6.35651,0.0827 -11.51514,5.2921 -11.51514,11.66752 l -0.205,0 z m -0.71506,0 c 0,-6.8822 5.57173,-12.50466 12.43521,-12.58755 l 0,0.36376 c -6.66284,0.0827 -12.07145,5.54201 -12.07145,12.22379"
           style="fill:#254aa5;fill-opacity:1;fill-rule:evenodd;stroke:none"
           id="path224"
           inkscape:connector-curvature="0" />
        <path
           d="m 223.12519,569.04852 c 0.0102,-0.0875 -0.0624,-0.17182 -0.14985,-0.18197 -0.0904,-0.0106 -0.18324,0.0514 -0.1938,0.14197 -0.0105,0.0905 0.0659,0.16913 0.1563,0.17969 0.0875,0.0102 0.17698,-0.0522 0.18735,-0.13969 z m -1.11033,-0.52085 -0.41594,-0.0168 -0.0349,-0.0549 0.57761,-0.43464 c -5.9e-4,0.016 0.0167,0.11398 -0.0187,0.27464 -0.0164,0.075 -0.0856,0.19272 -0.10817,0.23172 z m -8.47835,9.09475 -0.93726,0 c -0.0205,0.0187 -0.041,0.0373 -0.0616,0.0562 -0.0715,0.0713 -0.14295,0.14276 -0.21429,0.2143 0.16413,0.13119 0.35858,0.25636 0.66035,0.36022 0.16976,0.0473 0.30822,0.0535 0.47153,0.0943 -0.17931,-0.32461 -0.18715,-0.31424 -0.50594,-0.42885 0.279,-0.006 0.32935,0.0394 0.52315,-0.15421 0.0214,-0.0474 0.0427,-0.0947 0.064,-0.14193 z m 1.32525,0.0818 c 0.12581,-0.0114 0.15902,-0.0126 0.28482,-0.024 0.11418,0.0829 0.3212,0.15547 0.43543,0.23832 -0.13036,0.0719 -0.27957,0.0875 -0.43731,0.0773 -0.1973,-0.0561 -0.29166,-0.15332 -0.28294,-0.29159 z m -0.65352,0.0205 c 0.13726,-0.0114 0.2589,0.0339 0.39635,0.0224 0.0657,0.0713 0.1931,0.148 0.25888,0.21954 -0.14308,0.0452 -0.35092,0.0765 -0.5076,0.0806 -0.10075,-0.0143 -0.19279,-0.0715 -0.26597,-0.22302 0.0342,-0.0143 0.0839,-0.0851 0.11835,-0.0995 z m -0.74428,0.24522 c 0.0319,0.14757 0.14617,0.26756 0.34308,0.36023 0.15048,0.0367 0.29178,0.0354 0.4286,0.0172 -0.0856,-0.0715 -0.17142,-0.14302 -0.25719,-0.2145 0.0657,-0.017 0.13163,-0.0342 0.19728,-0.0514 -0.1086,-0.0914 -0.2172,-0.1828 -0.3258,-0.27445 -0.19046,0.0133 -0.31917,0.0675 -0.38597,0.16293 z m 6.41154,-4.03708 0.29184,0 c 0.37261,-0.0247 0.52372,-0.142 0.73638,-0.35731 -0.16724,-0.0692 -0.27376,-0.0651 -0.44106,-0.063 0.063,-0.16104 0.0798,-0.32208 0.0756,-0.48293 -0.063,0.0533 -0.15958,0.11069 -0.22258,0.16373 -0.0112,-0.0798 0.0112,-0.16373 0,-0.24352 -0.18306,0.0906 -0.33328,0.25474 -0.40311,0.49144 -0.0688,-0.12603 -0.12669,-0.25162 -0.23523,-0.39071 -0.2172,0.18324 -0.29064,0.82512 0.19811,0.88233 z m 0.89394,-1.68029 c -0.19545,0.086 -0.37889,0.20788 -0.52937,0.42841 -0.0154,-0.10219 -0.0589,-0.18758 -0.13017,-0.25617 -0.20974,0.25597 -0.40791,0.41803 -0.1511,0.7223 0.1542,-0.16828 0.32561,-0.31462 0.55857,-0.38219 0.028,0.0407 0.056,0.0812 0.0839,0.12188 0.21082,-0.14197 0.28191,-0.34656 0.16813,-0.63423 z m -0.13454,0.69723 c -0.0364,0.1457 -0.0601,0.33308 -0.0966,0.47878 0.0788,-0.0512 0.21702,0.0112 0.29413,0 0.22112,-0.0583 0.36249,-0.20933 0.44933,-0.42426 -0.21948,-0.10386 -0.43441,-0.1395 -0.64251,-0.0755 l -0.004,0.0209 z m 3.85552,4.67258 -0.0197,0 -1.30496,0.4558 2.9581,0 -0.0725,-0.12151 -0.1329,-0.16415 -1.13101,0 0,-0.29039 0.89578,0 -0.2081,-0.25699 -0.68768,0 0,-0.29058 0.50905,0 0.14549,-0.25699 -0.65454,0 0,-0.29058 0.81912,0 0.14548,-0.25706 -0.9646,0 0,-0.29058 1.12918,0 0.13473,-0.23794 0,-0.0191 -1.26391,0 -0.27982,0 -0.0172,0 0,2.02001 z m -5.84341,-1.7653 0,0.10905 c -0.0579,-0.0298 -0.0961,-0.0618 -0.0924,-0.10905 l 0.0924,0 z m -3.93174,-0.13619 -0.0687,-0.0342 -0.0209,-0.0146 c -0.0106,-0.004 -0.0193,-0.009 -0.0263,-0.0157 -0.0406,-0.0358 -0.10158,-0.0528 -0.16913,-0.0528 -0.10988,0 -0.20064,0.0949 -0.20064,0.2112 0,0.13511 0.11834,0.24289 0.26402,0.24289 0.0808,0 0.15655,-0.0199 0.22163,-0.057 l 0,-0.27984 z m -0.0369,-0.47938 c 0.0459,-0.13099 0.0288,-0.20955 -0.33492,-0.20955 l -1.90041,0 c -0.33409,-0.0262 -0.20436,0.18368 -0.24269,0.21037 l 2.47701,0 -0.003,0 c 0.001,-3.8e-4 0.003,-5.8e-4 0.004,-5.8e-4 z m 4.68919,0.61728 -0.38805,-0.002 0,0.31671 c 0,0.0593 -0.0613,0.10569 -0.13739,0.10569 -0.0929,0 -0.20917,-0.0739 -0.3167,-0.20057 -0.0887,-0.10778 -0.13738,-0.19653 -0.13738,-0.25351 0,-0.0529 0.0422,-0.0951 0.0951,-0.0951 l 0.15839,0 0,-0.31689 c 0,-0.0358 -0.0191,-0.0315 -0.0423,-0.0315 -0.0126,0 -0.0232,0.004 -0.0317,0.0106 0.0191,0.002 0.0317,-0.006 0.0317,0.0209 0,0.0402 -0.0422,0.0739 -0.0949,0.0739 -0.0761,0 -0.13744,-0.0294 -0.13744,-0.10543 0.002,-0.11841 0.11398,-0.24524 0.25351,-0.24524 0.19856,0.002 0.35915,0.13517 0.35915,0.29786 l 0,0.29576 0.3878,0.002 -0.002,-0.48939 3.50795,0 0,0.16067 -0.22821,0 0,0.67591 c 0,0.0211 0.0276,0.0528 0.074,0.0845 0.0464,0.0274 0.0739,0.0591 0.0739,0.0844 0,0.0262 -0.0181,0.0473 -0.0424,0.052 l 0.001,10e-4 -0.0135,0 c 0.14611,0 0.2286,0.11816 0.2286,0.26408 0,0.14567 -0.17887,0.26401 -0.34839,0.26401 l -0.54037,0 c -0.0161,0 -0.0319,-3.8e-4 -0.0474,-10e-4 l 0,-0.131 c 0.0228,0.004 0.0457,0.005 0.0687,0.005 l 0.33784,0 c 0.11625,0 0.21138,-0.057 0.21138,-0.12664 -0.002,-0.0698 -0.0908,-0.12682 -0.20082,-0.12682 l -0.0632,0 c -0.0635,0 -0.10778,0.0634 -0.16913,0.0634 -0.0633,-0.002 -0.11607,-0.0719 -0.11607,-0.15857 0,-0.0294 0.0232,-0.0527 0.0528,-0.0527 l 0.0682,0 0.003,-0.002 c -0.0269,-0.006 -0.0456,-0.0267 -0.0456,-0.0512 0,-0.0191 0.0232,-0.0443 0.0632,-0.0844 0.034,-0.0275 0.0528,-0.0593 0.0528,-0.0845 l 0,-0.39096 -0.43833,0 c -0.12891,0 -0.23233,0.1184 -0.23233,0.26408 -0.002,0.12252 0.0846,0.22176 0.19007,0.22176 0.0634,0 0.11626,-0.0526 0.17945,-0.0526 0.0297,0 0.0529,0.0188 0.0529,0.0422 0.002,0.0126 -0.006,0.0338 -0.0211,0.0633 l -0.0318,0.0744 -0.28495,0 c -0.22202,0 -0.40146,-0.17577 -0.40146,-0.39127 0,-0.0487 0.009,-0.0951 0.0246,-0.13726 l 0.0819,-0.12663 c 0.0535,-0.0526 0.12353,-0.0846 0.19975,-0.0846 l 0.68128,0 0,-0.15833 -1.24088,0 0,0.66528 c 0.002,0.0359 0.038,0.0782 0.0949,0.10551 0.0508,0.0191 0.0846,0.0529 0.0846,0.0846 0,0.0232 -0.0232,0.0427 -0.0526,0.0427 l -0.59153,0 c -0.0297,0 -0.0529,-0.0195 -0.0529,-0.0427 0.002,-0.0297 0.0337,-0.0612 0.0844,-0.0846 0.039,-0.0172 0.069,-0.0445 0.0843,-0.0742 -0.0781,0.0563 -0.23479,0.096 -0.35895,0.0956 -0.26819,-0.001 -0.48584,-0.17123 -0.48584,-0.38033 0.001,-0.1859 0.20107,-0.33809 0.41202,-0.33809 l 0.28527,0 c 0.0171,-5.8e-4 0.0333,0.005 0.0473,0.0156 l 0.11106,0.0286 0,-0.1179 -1.01146,0 0,0.66528 c 0.002,0.0358 0.038,0.0782 0.0949,0.1055 0.0508,0.0191 0.0846,0.0529 0.0846,0.0846 0,0.0232 -0.0232,0.0427 -0.0527,0.0427 l -0.59154,0 c -0.0296,0 -0.0528,-0.0195 -0.0528,-0.0427 0.002,-0.0297 0.0337,-0.0612 0.0843,-0.0846 0.057,-0.0309 0.0695,-0.027 0.0947,-0.1026 l 0.002,-0.21239 z m 1.54803,-1.07054 c 0.12934,0 0.23503,0.0829 0.23503,0.18444 0,0.10158 -0.10569,0.1845 -0.23503,0.1845 -0.12955,0 -0.23505,-0.0829 -0.23505,-0.1845 0,-0.10152 0.1055,-0.18444 0.23505,-0.18444 z m -6.78896,-5.46889 c -0.10361,0.17868 -0.31917,0.4334 -0.36434,0.51256 -0.0284,0.0746 -0.12232,0.27236 -0.14219,0.37369 -0.0381,0.0204 -0.0568,0.0236 -0.0645,0.0197 0.002,-0.007 0.004,-0.0145 0.004,-0.0213 l 0.009,-0.0116 c 3.8e-4,-0.008 -0.009,10e-4 -0.0145,0.012 -0.20771,0.0243 -0.43859,0.0723 -0.48546,-0.007 -0.0101,-0.006 0.0139,-0.0342 0.008,-0.0435 0.31525,-0.26445 0.48129,-0.57683 0.55738,-0.9872 -0.0636,-0.0207 -0.14883,-0.13514 -0.25162,-0.23296 -0.0394,-0.0375 -0.0597,-0.0686 -0.0952,-0.10842 0.13827,-0.005 0.27527,-0.0379 0.40254,-0.0754 0.0284,0.0647 0.0494,0.11171 0.0777,0.1766 0.0454,0.0586 0.0909,0.11771 0.13656,0.17656 0.0319,0.0149 0.064,0.0302 0.0966,0.0454 0.006,0.0267 0.0114,0.0533 0.017,0.0798 0.0126,0.005 0.0964,0.0802 0.10898,0.0916 z m 2.87289,-0.292 c -0.0551,0.22877 -0.12497,0.45222 -0.2079,0.66901 l 0.19861,0.22239 0.009,-0.8914 z m -0.0147,1.39112 c -0.15901,0.31462 -0.34528,0.61352 -0.55566,0.89332 l -0.48831,-0.10156 -0.17249,1.14534 1.19617,0 0.0204,-1.9371 z m 1.41059,2.11803 -2.66911,0 0,0.17723 c 0,0.0976 0.0773,0.1772 0.17243,0.1772 l 2.32425,0 c 0.0949,0 0.17243,-0.0796 0.17243,-0.1772 l 0,-0.17723 z m 2.20819,3.12019 c -0.0174,0 -0.0363,-0.008 -0.057,-0.0214 -0.0337,-0.0211 -0.0719,-0.0317 -0.10569,-0.0317 l -0.0632,0 c -0.0993,0 -0.1797,0.0949 -0.1797,0.2112 0,0.12872 0.11834,0.23233 0.26401,0.23233 0.0818,0 0.17824,-0.0303 0.25351,-0.0709 l 0,-0.21905 -0.11195,-0.1005 z m -9.09885,4.28766 c 0.051,5.8e-4 0.10195,0.001 0.15294,0.001 2.65361,0 5.11423,-0.85328 7.12178,-2.29915 l 0.60583,0 c -2.13539,1.66738 -4.81885,2.6629 -7.72761,2.6629 -0.0512,0 -0.10216,-1.8e-4 -0.1532,-5.8e-4 l 2.6e-4,-0.36395 z m 0,-0.55631 c 0.051,5.9e-4 0.10195,10e-4 0.15294,10e-4 2.24259,0 4.34028,-0.63878 6.12197,-1.74284 l 0.38052,0 c -1.86973,1.23051 -4.10486,1.94804 -6.50249,1.94804 -0.0512,0 -0.10216,-3.8e-4 -0.1532,-10e-4 l 2.6e-4,-0.2052 z m -2.6e-4,-4.97372 11.93615,0 c 0.13555,5.9e-4 0.27154,0.002 0.40791,0.002 l 0,2.72823 -12.34406,0 0,-0.3157 0.0659,0 c 0.16958,0 0.30678,-0.11834 0.30678,-0.26401 0,-0.14593 -0.1181,-0.26408 -0.26428,-0.26408 l -0.0447,0 -2e-4,-1.9e-4 c 0.0805,-0.004 0.004,0.0321 -0.0632,-10e-4 l -2.5e-4,-0.89678 0.358,0 0,0.6759 c 0,0.0358 -0.0316,0.076 -0.0846,0.10544 -0.0402,0.0235 -0.0654,0.0487 -0.0635,0.0634 0,0.0297 0.019,0.0532 0.0425,0.0532 l 0.54903,0 c 0.0358,0 0.0654,-0.0236 0.0635,-0.0532 0,-0.0253 -0.0337,-0.0549 -0.0846,-0.074 -0.0508,-0.0229 -0.0823,-0.0549 -0.0846,-0.0843 l 0,-0.68646 0.80501,0 c 0.0929,0 0.16287,0.003 0.16287,0.11998 -0.0232,0.0644 -0.0889,0.11588 -0.17533,0.11689 l -0.48123,0.005 -0.006,0.22923 c 0.055,0 0.13789,-0.0385 0.18222,0.13042 0.0297,0.17116 0.0448,0.22176 0.16959,0.29615 0.20538,0.0794 0.61778,0.0829 0.75977,0 l -0.0217,-0.21431 c -0.0763,0.0617 -0.18014,0.0976 -0.29431,0.0976 -0.18382,0 -0.21721,-0.15395 -0.21493,-0.30607 0.0802,0.0147 -0.0218,0.0211 0.004,0.0211 l 0.15857,0 c 0.15831,0 0.34775,-0.11422 0.34675,-0.25351 -5.9e-4,-0.12252 -0.0614,-0.19854 -0.16048,-0.24288 l 1.28092,0 0,0.0943 -0.16996,-0.0367 -0.24396,0.0118 0.011,0.006 c -0.27155,-0.006 -0.58242,0.091 -0.60836,0.29697 -0.0252,0.34365 0.27053,0.46181 0.56712,0.46181 0.0789,0 0.28786,-0.051 0.34876,-0.0653 -0.0504,0.0247 -0.082,0.0566 -0.0841,0.0862 0,0.0232 0.0232,0.0427 0.0526,0.0427 l 0.57768,0 c 0.0294,0 0.0526,-0.0195 0.0526,-0.0427 0,-0.0317 -0.0336,-0.0655 -0.0844,-0.0846 -0.0572,-0.0273 -0.0789,-0.0697 -0.081,-0.10551 l 0,-0.66528 1.3825,0 0,0.24288 -0.80045,0 c -0.27654,0 -0.30678,0.17224 -0.30778,0.28849 -0.003,0.34637 0.50007,0.42949 0.75832,0.30513 0.10468,-0.0504 0.13245,-0.29203 0.12024,-0.34655 l -0.15155,0.01 c 0,-0.0222 0.0111,0.0937 -0.0758,0.115 -0.0984,0.024 -0.16287,0.11549 -0.25136,0.002 -0.12752,-0.16477 0.0526,-0.24333 0.0233,-0.24643 l 0.68508,0 0,0.2852 c 0,0.0443 -0.0383,0.0908 -0.0952,0.11607 -0.0505,0.0234 -0.0823,0.0549 -0.0843,0.0846 0,0.0232 0.0232,0.0427 0.0526,0.0427 l 0.59152,0 c 0.0296,0 0.0529,-0.0195 0.0529,-0.0427 0,-0.0317 -0.0337,-0.0655 -0.0846,-0.0846 -0.057,-0.0273 -0.0928,-0.0696 -0.0951,-0.10551 l 0,-0.66528 0.41202,0 0,0.65472 c 0,0.0443 -0.0381,0.0908 -0.0951,0.11607 -0.0506,0.0234 -0.0823,0.0549 -0.0844,0.0846 0,0.0232 0.0232,0.0427 0.0529,0.0427 l 0.59128,0 c 0.0297,0 0.0529,-0.0195 0.0529,-0.0427 0,-0.0317 -0.0337,-0.0655 -0.0846,-0.0846 -0.057,-0.0273 -0.0929,-0.0696 -0.0949,-0.10551 l 0,-0.66528 0.22815,0 0,-0.16066 -0.21347,0 1.8e-4,-1.9e-4 c 0.0332,-0.0122 0.1389,-0.0912 0.1389,-0.12663 0,-0.0359 -0.0188,-0.0655 -0.0421,-0.0633 -0.0699,0 -0.11006,0.0844 -0.17976,0.0844 -0.0381,0 -0.0951,-0.0211 -0.16908,-0.0632 l -0.40127,-0.31695 c -0.0316,-0.0275 -0.0972,-0.0422 -0.19007,-0.0422 -0.0297,0 -0.0825,0.0147 -0.16066,0.0422 l -0.17945,0.0846 c -0.0316,0.0106 -0.0529,0.0444 -0.0529,0.0844 0,0.017 0.0275,0.0296 0.0635,0.0317 0.0296,0 0.0761,-0.019 0.13725,-0.0528 0.0233,-0.0147 0.0548,-0.0232 0.0951,-0.0211 0.0381,0 0.0928,0.0402 0.20272,0.11626 l 0.1797,0.12662 c 0.0387,0.0276 0.0754,0.0612 0.11443,0.0856 0.0234,0.0146 0.0474,0.0259 0.0734,0.0303 l 0.002,3.8e-4 -2.10642,0 c 0.0263,-0.23877 -0.1038,-0.39419 -0.46035,-0.39026 l -2.35531,0 c -0.45409,-0.004 -0.43441,0.19937 -0.42822,0.39026 l -0.31569,0 0,-0.828 z m 9.70972,-6.69297 c -0.0174,0.0618 -0.0274,0.12704 -0.0298,0.19399 -0.009,0.2477 0.12227,0.5248 0.15129,0.58492 l -0.15338,-0.006 -0.0365,0.40396 1.3176,0.10279 c -0.0472,0.40749 -0.16148,0.92711 -0.25363,1.32589 l -0.81982,-0.18944 c -0.01,-0.0122 -0.0955,-0.18138 -0.0419,-0.40791 0.0336,-0.14053 0.11359,-0.28208 0.29266,-0.23483 0.16439,0.0435 0.21309,0.21556 0.16111,0.41329 -0.0297,0.11233 -0.0855,0.17555 -0.0871,0.18198 l 0.1764,0.0464 c 5.9e-4,-0.003 0.10607,-0.11834 0.16142,-0.32809 0.0811,-0.30695 0.0315,-0.61268 -0.28374,-0.6993 -0.30027,-0.0823 -0.53221,0.16849 -0.6052,0.44519 -0.0715,0.27069 0.007,0.5254 0.007,0.5254 l -0.25281,-0.0665 -0.10203,0.38612 0.58122,0.15316 c 0.0155,0.004 0.21139,0.22176 0.15624,0.43153 -0.0698,0.26447 -0.16806,0.29077 -0.34112,0.24498 -0.14902,-0.0394 -0.20665,-0.16518 -0.15155,-0.37515 0.0232,-0.0879 0.10348,-0.20664 0.10822,-0.21202 l -0.18242,-0.0481 c -5.8e-4,0.003 -0.12726,0.0999 -0.19235,0.34593 -0.0752,0.28583 -0.0281,0.5878 0.29704,0.6736 0.31626,0.0835 0.53207,-0.0808 0.63131,-0.45785 0.0721,-0.27338 -0.0922,-0.52063 -0.10196,-0.53309 l 0.46838,0.12913 c -0.1291,0.44915 -0.2234,0.78844 -0.41986,1.21292 l 0.25015,0.13846 c 0.31792,-0.78366 0.65062,-1.93542 0.80375,-3.03641 0.0102,-0.0738 0.019,-0.14884 0.0267,-0.2247 0.35529,-0.0678 0.49887,-0.20975 0.52891,-0.32082 l -0.16224,-0.19462 c -0.0746,0.0999 -0.0817,0.12767 -0.34655,0.27875 0.004,-0.0487 0.007,-0.0976 0.009,-0.14631 0.39919,-0.17017 0.50115,-0.40231 0.53062,-0.51196 l -0.22903,-0.18921 c -0.034,0.0719 -0.0688,0.13864 -0.29039,0.43897 0.005,-0.16272 0.007,-0.32249 0.008,-0.47506 l -0.28578,-4.1e-4 -0.007,0.82658 -0.28584,-0.0114 c 0.045,-0.0481 0.21038,-0.24561 0.22284,-0.62803 0.002,-0.0624 -0.004,-0.12559 -0.0182,-0.18675 l -0.44169,0 c 0.0759,0.057 0.0989,0.1364 0.0987,0.1426 l -0.58173,0.43134 c -0.004,-0.01 -0.0485,-0.13785 -0.0453,-0.22178 0.0106,-0.1285 0.0535,-0.27379 0.15774,-0.35216 l -0.39835,2.2e-4 z m -0.62821,-5.9e-4 c 0,1.86559 -0.5775,3.60017 -1.56277,5.0353 -0.001,-2.3e-4 -0.002,0 -0.004,0 0,0.002 -2e-4,0.004 -2e-4,0.005 -0.23403,0.34033 -0.49058,0.6643 -0.76838,0.96855 l -0.0188,0 c -2.5e-4,0.007 -2.5e-4,0.0137 -4.3e-4,0.0205 -0.0345,0.0375 -0.069,0.0752 -0.10431,0.11214 l -0.0294,0 c -1.9e-4,0.01 -1.9e-4,0.0197 -3.8e-4,0.0311 -0.01,0.0104 -0.0201,0.0207 -0.0301,0.0309 -0.42574,-0.002 -0.85124,-0.004 -1.27692,-0.007 l 0,0.0151 -0.1957,0 c 0,-0.006 1.9e-4,-0.0114 1.9e-4,-0.0161 -0.0445,-2.1e-4 -0.0889,-4e-4 -0.12455,-5.8e-4 0,0.005 -2.5e-4,0.0106 -2.5e-4,0.0168 l -0.7911,0 c 0,-0.008 2.6e-4,-0.0149 2.6e-4,-0.0209 -0.0267,-2.2e-4 -0.0446,-2.2e-4 -0.0624,-4.1e-4 0,0.006 0,0.0134 -1.9e-4,0.0213 l -0.52442,0 c 0,-0.009 0,-0.0172 2.5e-4,-0.024 -0.0267,0 -0.0446,-1.9e-4 -0.0624,-1.9e-4 0,0.007 0,0.0151 -2.5e-4,0.0243 l -3.52579,0 0,0.25867 12.59485,0 0,3.17614 -12.59485,0 0,0.25471 0.73354,0 c -0.12828,0.24434 -0.41867,0.44087 -0.70324,0.62323 -0.01,-0.006 -0.0201,-0.0126 -0.0301,-0.0191 l 0,0.28747 c 0.0242,-0.0164 0.0491,-0.0326 0.0744,-0.0485 0.2303,0.1322 0.41702,0.24706 0.48875,0.50443 0.0673,-0.0504 0.19874,-0.006 0.26629,-0.0566 -0.0437,-0.19709 -0.30962,-0.36723 -0.59748,-0.54345 0.17242,-0.10241 0.35712,-0.20893 0.52537,-0.34403 0.48091,0.31379 1.02848,0.6427 1.69421,0.60329 -0.0169,-0.0615 -0.16206,-0.19171 -0.17888,-0.25326 0.27319,0.091 0.68337,0.0792 0.99072,0.10158 -0.0392,-0.0896 -0.12974,-0.16186 -0.1687,-0.25124 0.2773,0.0464 0.56706,0.0487 0.82177,0.0495 -0.0391,-0.12847 -0.14675,-0.0941 -0.1859,-0.22258 0.32828,0.0143 0.74036,-0.005 1.00001,-0.0352 -0.0223,-0.0781 -0.26584,-0.19753 -0.28823,-0.27585 0.32492,10e-4 0.84314,-0.0394 1.22904,-0.11979 l 4.9694,0 0,0.79963 4.6926,0 -1.15524,-1.4264 0.98799,-1.74436 -2.18042,0 0,-1.31839 -1.89022,0 c 1.04708,-1.83491 1.64652,-3.95584 1.64652,-6.21213 l -0.36377,0 c 0,2.2654 -0.62265,4.38965 -1.70413,6.21213 l -0.41038,0 c 1.11715,-1.80923 1.76321,-3.9374 1.76321,-6.21213 l -0.20499,0 c 0,2.28033 -0.66055,4.41141 -1.79928,6.21213 l -0.83277,0 c 0.10178,-0.0456 0.19754,-0.10614 0.28502,-0.18571 l 0.35851,-0.24478 -0.40893,-0.0236 c 0.13308,-0.0933 0.38369,-0.2137 0.45313,-0.35836 l 0.178,-0.22138 c -0.30405,-0.13824 -0.42493,-0.0505 -0.73789,-0.0831 0.2575,-0.22236 0.1642,-0.44165 0.072,-0.81804 -0.28338,0.17284 -0.4823,0.24932 -0.61273,0.46219 l -0.22733,-0.36518 c -0.0489,0.29969 -0.42657,0.50902 -0.3482,0.77742 l -0.14946,-0.0442 -0.0593,0.25266 c -0.11043,0.21142 -0.10771,0.37869 -0.0643,0.61308 l -0.258,-0.25865 c -0.0489,0.14862 -0.15649,0.35751 -0.0999,0.49764 l -0.69267,0 c 1.51197,-1.63513 2.43849,-3.81865 2.43849,-6.21213 l -0.23504,0 z m -4.64441,4.1e-4 c -0.0628,0.22261 -0.13473,0.47714 -0.16022,0.54656 -0.15667,0.12248 0.092,0.61766 0.19033,0.58739 -5.8e-4,0.08 -0.001,0.16872 -0.002,0.25744 -0.0654,0.009 -0.25414,0.66136 -0.29873,0.78758 -0.0557,0.19153 -0.009,0.22097 -0.0464,0.32189 -0.0788,-0.009 -0.0613,0.0512 -0.0616,0.0823 l -0.0499,0.0995 c 0,-0.003 1.8e-4,-0.005 1.8e-4,-0.008 -0.20436,0.0504 -0.43111,0.12913 -0.48792,0.0551 -0.0108,-0.005 0.007,-0.0334 0.003,-0.0431 0.0419,-0.0651 0.16438,-0.16477 0.17015,-0.20082 0.1339,-0.2914 0.24358,-0.64523 0.2463,-0.96626 -0.0687,-0.01 -0.15819,-0.13287 -0.28147,-0.21453 -0.0693,-0.0456 -0.14554,-0.0926 -0.19653,-0.14674 -0.0344,-0.0369 -0.15313,-0.0721 -0.15358,-0.11794 -0.001,0.0325 0.0263,0.25039 -0.18234,0.33268 l 0,0.1117 c 0,0.0263 -0.0195,0.0479 -0.0439,0.0479 -0.0246,0 -0.0444,-0.0216 -0.0444,-0.0479 l 0,-0.10382 c -0.0126,1.8e-4 -0.0259,1.8e-4 -0.0404,1.8e-4 l 0,0.0833 c 0,0.0266 -0.0197,0.0481 -0.0442,0.0481 -0.0245,0 -0.0441,-0.0215 -0.0441,-0.0481 l 0,-0.0875 c -0.0298,-0.006 -0.055,-0.0193 -0.0665,-0.0615 -2.5e-4,0.0166 -0.029,0.052 -0.0641,0.0599 l 0,0.10942 c 0,0.0263 -0.0195,0.0479 -0.0442,0.0479 -0.0244,0 -0.0441,-0.0216 -0.0441,-0.0479 l 0,-0.11129 c -0.0141,-10e-4 -0.0272,-0.003 -0.0405,-0.005 l 0,0.0956 c 0,0.0266 -0.0197,0.0481 -0.0441,0.0481 -0.0245,0 -0.0442,-0.0215 -0.0442,-0.0481 l 0,-0.11361 c -0.16167,-0.0468 -0.2518,-0.1594 -0.24996,-0.36891 0.009,-0.028 0.19398,-0.0922 0.30885,-0.12354 -0.10095,-5.8e-4 -0.21929,-5.8e-4 -0.34675,0.0535 -0.45787,0.0953 -0.97022,0.23149 -1.32006,0.13573 -0.29722,-0.0814 -0.49723,-0.0678 -0.83739,-0.0924 0.0336,-0.34362 0.43365,-0.2371 0.13251,-0.88126 -10e-4,0.15067 -0.018,0.3484 -0.0191,0.49909 -0.082,0.0559 -0.16104,0.17761 -0.22922,0.3198 l 1.8e-4,2.05234 c 0.23549,-0.005 0.47857,-0.0118 0.65497,-4.4e-4 0.0757,-0.0553 0.0779,-0.11026 0.15358,-0.1656 0.0205,-0.53078 0.0129,-1.09435 0.0337,-1.62576 0.20811,0.0512 0.51753,0.0783 0.72089,0.012 -0.003,0.30759 -0.006,0.87569 -0.009,1.27383 -0.0245,0.0184 -0.0636,0.0572 -0.0692,0.0636 l -0.25679,0.29225 c 0.002,0.0149 0.1065,0.0297 0.16078,0.0197 -0.004,0.0205 -0.0328,0.0222 -0.0377,0.0531 0.0719,0.0727 0.44251,0.0446 0.51013,-0.0508 0.003,-0.004 0.005,-0.007 0.008,-0.0116 0.14547,0.012 0.29121,0.0239 0.43669,0.0358 0.10322,0.0549 0.20626,0.11028 0.30968,0.1654 0.13061,-0.0311 0.26135,-0.062 0.39216,-0.093 0.0661,0.0547 0.18198,0.0675 0.26465,0.1086 l -0.0452,0.0669 c 0.005,0.0143 0.10943,0.016 0.16205,-5.9e-4 -5.8e-4,0.0209 -0.0296,0.0261 -0.0306,0.0574 0.0801,0.063 0.44454,-0.0118 0.49944,-0.11461 0.0232,-0.0433 0.0616,-0.10902 0.0937,-0.17638 0.13611,-0.12641 0.27255,-0.25304 0.40893,-0.37948 -0.27838,0.46882 -0.63367,0.8873 -1.04734,1.2386 -0.56275,0.11524 -1.11898,-0.003 -1.63657,0.10155 -0.18173,0.0369 -0.23088,0.18179 -0.47547,0.22572 -0.12062,0.004 -0.31297,0.0483 -0.43333,0.0516 0.28184,0.0346 0.47609,0.12745 0.7685,0.0895 0.10114,-0.0719 0.12518,-0.14738 0.29988,-0.20974 0.41975,-0.15047 0.81646,-0.12704 1.24303,-0.0717 -0.81481,0.61019 -1.82501,0.97227 -2.91731,0.97227 -0.0547,0 -0.10898,-5.8e-4 -0.16325,-0.003 l 3.8e-4,1.107 c 0.0466,0.002 0.0935,0.002 0.14029,0.002 0.24567,0.001 0.48831,-0.0141 0.72646,-0.0423 l 0.16394,-0.49701 c 0.37515,-0.0605 0.73771,-0.15857 1.08357,-0.29143 l 0.39051,0.34842 c 0.43733,-0.18883 0.84789,-0.42821 1.2243,-0.71133 l -0.1065,-0.51215 c 0.21556,-0.17577 0.4172,-0.3681 0.60373,-0.57454 l -0.16534,0.94387 c -0.0314,0.0164 -0.0525,0.0489 -0.0525,0.0867 0,0.0352 0.0185,0.0663 0.0466,0.0835 l 0,0.17888 c 0,0.1743 0.12644,0.31671 0.28065,0.31671 l 2.44038,0 c 0.15434,0 0.28059,-0.14241 0.28059,-0.31671 l 0,-0.16562 c 0.0469,-0.007 0.0833,-0.0481 0.0833,-0.0968 0,-0.0512 -0.0398,-0.0935 -0.0901,-0.0976 l -0.72853,-4.63299 -0.15996,0 0.67958,4.63485 -1.19616,0 -0.0125,-2.26208 c 5.9e-4,-0.002 0.002,-0.004 0.003,-0.007 l -0.003,-0.004 -0.008,-1.48461 0.45074,-0.14861 c 0.027,-0.22594 0.0421,-0.45497 0.0432,-0.68752 l 0,-0.0415 -1.39153,0 c -0.003,0.11421 -0.006,0.23173 -0.009,0.34552 -0.005,0.19877 -0.0342,0.38925 -0.008,0.52913 0.0504,0.26408 0.13909,0.43923 0.1544,0.65975 0.0199,0.28311 -0.1086,0.58758 -0.16022,0.78717 -0.14339,-0.16765 -0.19335,-0.35212 -0.20266,-0.5797 -0.01,-0.24229 0.0763,-0.5959 0.10671,-0.98306 0.0199,-0.25225 0.0167,-0.51484 0.0141,-0.75881"
           style="fill:#254aa5;fill-opacity:1;fill-rule:evenodd;stroke:none"
           id="path226"
           inkscape:connector-curvature="0" />
        <path
           d="m 219.42343,560.78428 c 0.002,0.002 0.0551,0.17473 0.22967,0.0213 0.19108,-0.16809 0.0506,-0.3569 0.0464,-0.36126 l -0.33226,-0.34842 -0.27875,-0.25431 -0.88603,0.98037 -0.29786,-0.27568 0.85106,-1.01557 -0.51797,-0.41225 -0.7835,1.06576 -0.32145,-0.23754 0.20045,-0.29763 c -0.0112,0 -0.28748,-0.012 -0.56396,-0.19835 -0.26572,-0.17929 -0.3926,-0.45827 -0.17641,-0.77889 0.13884,-0.20583 0.42841,-0.34383 0.44833,-0.34551 l -0.50367,-0.27174 -0.59236,1.18949 -0.38096,-0.18821 0.55921,-1.19445 c -0.42157,-0.20272 -0.86966,-0.35294 -1.31671,-0.48871 l -0.13619,0.46632 c 0.0126,-0.01 0.26218,-0.17037 0.53448,-0.0941 0.3754,0.10529 0.53663,0.32335 0.44833,0.63818 -0.0908,0.32395 -0.39337,0.36664 -0.67794,0.28686 -0.24522,-0.0686 -0.34016,-0.1965 -0.34301,-0.19732 l 0.0508,-0.18179 c 0.005,0.005 0.1227,0.0868 0.21056,0.11132 0.20892,0.0584 0.33555,0.002 0.37717,-0.14572 0.0483,-0.17265 0.0235,-0.27111 -0.23979,-0.34489 -0.20911,-0.0582 -0.4265,0.13536 -0.43378,0.14966 l -0.16205,0.57887 -0.38451,-0.10777 0.0703,-0.25184 c 0,0 -0.25599,0.0752 -0.52537,-1.9e-4 -0.27572,-0.0771 -0.52297,-0.31297 -0.43613,-0.61187 0.0912,-0.31398 0.39773,-0.35873 0.70349,-0.27315 0.20912,0.0584 0.32265,0.1654 0.32575,0.16622 l -0.0494,0.17575 c -0.006,-0.002 -0.0686,-0.0584 -0.18052,-0.0897 -0.19684,-0.0553 -0.36971,-0.009 -0.41557,0.15462 -0.0498,0.17843 0.0904,0.26012 0.23056,0.29617 0.22568,0.0568 0.39583,-0.0263 0.40829,-0.0357 l 0.20165,-0.8168 c -0.37926,-0.1001 -0.74157,-0.16418 -1.13126,-0.22407 l 0.0452,-0.26632 c 1.00438,0.15211 2.0123,0.44188 2.96532,0.85703 0.86301,0.40127 1.69066,0.89539 2.33438,1.43117 0.0817,0.0591 0.20626,0.1629 0.34219,0.28147 -0.0929,-0.33805 -0.12499,-0.41867 -0.15959,-0.48771 l 0.29103,-0.063 c 0.0673,0.0908 0.20038,0.32996 0.0893,0.74676 0.004,0.003 0.007,0.006 0.01,0.009 0.0161,-0.10777 0.15566,-0.32248 0.30304,-0.28247 0.12409,0.0336 0.17205,0.075 0.34966,0.2659 l -0.20893,0.1691 c -0.15047,-0.18174 -0.28545,-0.14114 -0.23377,0.04 0.0663,0.0617 0.12637,0.11876 0.17552,0.16642 0.15357,0.15026 0.33182,0.34697 0.50943,0.55403 -0.0668,-0.34115 -0.0947,-0.41826 -0.12372,-0.48977 l 0.29449,-0.0405 c 0.0616,0.097 0.18141,0.34698 0.0276,0.76609 0.10151,0.12311 0.19943,0.24497 0.28855,0.35898 l -0.22057,0.17142 -0.21245,-0.25912 c -0.002,0.002 0.0925,0.29203 -0.0443,0.41247 -0.37288,0.32812 -0.70387,-0.0667 -0.71817,-0.092 -0.22012,0.19381 -0.3055,0.4442 -0.14718,0.60688 l -0.29331,-0.034 c -0.14275,-0.16563 -0.19456,-0.3026 -0.14585,-0.46908 0.0497,-0.17078 0.20728,-0.55048 0.21657,-0.55876 l -0.17223,-0.19586 0.25162,-0.24169 0.35731,0.40605 z m -7.06018,-3.59562 c 0.116,0 0.21076,0.0945 0.21076,0.21078 0,0.11585 -0.0948,0.2106 -0.21076,0.2106 -0.11613,0 -0.21082,-0.0947 -0.21082,-0.2106 0,-0.11626 0.0947,-0.21078 0.21082,-0.21078 z m 5.51488,1.66349 -0.29976,0.43382 c -0.001,0.002 -0.263,0.16559 -0.45414,0.0448 -0.18052,-0.11442 -0.26029,-0.2852 -0.13486,-0.46553 0.13429,-0.19378 0.29697,-0.29451 0.38027,-0.34138 l 0.50849,0.32831 z m 3.49587,5.79533 c 0.001,0.005 0.004,0.0742 -0.13055,0.0957 -0.12151,0.0195 -0.17123,-0.0398 -0.19438,-0.10466 -0.0301,-0.0837 0.0194,-0.15088 0.10462,-0.16458 0.14156,-0.0226 0.18381,0.0535 0.18615,0.0607 l 0.0342,0.11277 z M 220.58208,562.02 c 0,0 -0.0651,0.005 -0.1105,-0.0591 -0.0379,-0.0537 -0.0462,-0.12622 0.0193,-0.17473 0.12599,-0.0935 0.19892,-0.005 0.25592,0.0736 0.10676,0.14757 0.0261,0.33577 -0.14795,0.46468 -0.22714,0.1685 -0.31462,0.0383 -0.4174,-0.10072 l -0.3484,-0.46965 -0.25541,0.20101 0.18736,0.25247 c -0.096,0.10257 -0.0926,0.16623 -0.11107,0.3051 -0.0232,0.17388 0.0104,0.30528 0.11543,0.44684 l 0.26617,0.35858 0.21739,-0.16168 -0.25098,-0.33804 c -0.0469,-0.0634 -0.0646,-0.12891 -0.0486,-0.20292 0.0122,-0.0566 0.008,-0.0528 0.0523,-0.0934 l 0.0769,0.1036 c 0,0 0.37913,0.4817 0.76521,0.18429 0.29641,-0.22802 0.34967,-0.75447 0.12126,-1.06245 -0.15358,-0.20708 -0.38799,-0.52419 -0.77844,-0.21619 -0.16541,0.13059 -0.10449,0.34801 0.013,0.50323 0.0684,0.0902 0.13018,0.17473 0.20355,0.16747 l 0.17495,-0.18195 z m 2.08131,3.9127 -0.27275,0.0508 -0.0586,-0.33492 -1.29957,0.29513 -0.0825,-0.38966 0.71335,-0.18179 -0.10336,-0.29614 c -0.008,0.004 -0.0698,0.0904 -0.24604,0.1148 -0.33182,0.0462 -0.49602,-0.1376 -0.59419,-0.41889 -0.11195,-0.32084 -0.0265,-0.5766 0.29178,-0.71547 0.44252,-0.19317 0.62759,0.2964 0.62759,0.2964 l 0.33783,0.93951 0.25617,-0.0653 c -0.16705,-0.63423 -0.32183,-1.18493 -0.59729,-1.77646 l -1.19755,0.54906 -0.16585,-0.35175 1.17523,-0.61202 -0.1379,-0.27901 0.24732,-0.137 c 0.54959,1.03531 0.88793,2.16531 1.10634,3.3127 z m -10.58888,-3.08161 0.14857,0.82431 0.57104,-0.002 -0.27053,-0.57268 -0.42132,-0.24747 c -0.009,-10e-4 -0.0187,-0.002 -0.0278,-0.002 z m 1.56111,0.39878 c 0.0377,0.0931 0.17369,0.43527 0.17369,0.43527 l 0.52627,0.0263 0.0435,-0.051 c -0.23448,-0.1573 -0.48274,-0.29513 -0.74347,-0.4106 z m -0.64358,1.18784 c 0.0727,0.35858 0.11588,0.76731 0.10676,1.19489 0.30406,-0.0842 0.74739,-0.171 1.066,-0.17268 0.31005,0.0106 0.60455,0.0212 0.87002,0.0953 0.22056,0.0616 0.39855,0.12585 0.53063,0.1878 0.10923,0.051 0.31277,0.15626 0.47735,0.33682 0.27458,0.30132 0.38154,0.78284 0.43379,0.99504 -0.0209,-0.16081 -0.0447,-0.33845 -0.0695,-0.52375 -0.20519,-0.83382 -0.62613,-1.58453 -1.19901,-2.18972 -0.24313,-0.011 -0.62701,0.009 -0.87015,0.0182 0.0154,0.033 0.0226,0.0495 0.0384,0.0821 -0.13745,0.016 -0.18343,-0.0388 -0.33245,-0.0944 l -0.10076,0.008 c 0.0204,0.17597 0.0419,0.39258 0.004,0.55134 -0.30823,-0.10678 -0.47819,-0.30532 -0.63511,-0.50802 -0.0893,0.002 -0.23087,0.0176 -0.32,0.0192 z m -0.65289,0.0134 c 0.14346,-0.006 0.30614,0.008 0.44953,0.002 0.0978,0.37415 0.13081,0.73228 0.11423,1.18288 -0.16666,0.0172 -0.35686,0.0298 -0.52328,0.047 0.0371,-0.46098 0.0356,-0.84773 -0.0405,-1.2318 z m 4.69747,1.06307 -0.2446,0.27398 c 0.0966,0.25206 0.17477,0.51259 0.2334,0.78059 l 0.0112,-1.05457 z m 0.0866,-0.15502 c 0.006,0.0129 0.0115,0.0259 0.017,0.039 l -0.0211,0.0234 -0.007,0.11524 0.007,1.3468 0.44562,0.14674 -0.3818,-2.60427 -0.0599,0.93312 z m -0.16041,-0.96877 c -0.10259,-0.022 -0.19089,-0.0833 -0.2475,-0.16746 l -0.22505,0.0333 c 0.14156,0.19482 0.27154,0.39899 0.38906,0.61079 l 0.0835,-0.4767 z m -5.45832,-6.41109 0.0975,0.1685 -0.0975,0.004 0,-0.17183 z m 12.37846,9.74139 c 0,-6.73316 -5.49191,-12.22483 -12.22527,-12.22483 -0.0513,0 -0.10259,4.1e-4 -0.15382,10e-4 l 0,-0.36376 c 0.0512,-5.8e-4 0.10247,-5.8e-4 0.15382,-5.8e-4 6.93381,0 12.58904,5.65475 12.58904,12.58837 l -0.36377,0 z m -0.55629,0 c 0,-6.42683 -5.24195,-11.66852 -11.66898,-11.66852 -0.0513,0 -0.10259,4.1e-4 -0.15382,10e-4 l 0,-0.20496 c 0.0512,-5.9e-4 0.10247,-10e-4 0.15382,-10e-4 6.54001,0 11.87398,5.33374 11.87398,11.87353 l -0.205,0 z m -0.81412,0 0.004,-0.48479 0.28191,-0.0167 c 0,0.15212 5.9e-4,0.32189 1.9e-4,0.50196 l -0.28577,-4.1e-4 z m -1.29831,5.9e-4 c 0.0742,-0.26445 0.28394,-0.46613 0.63442,-0.45474 0.33745,0.0108 0.52025,0.21765 0.57616,0.45452 l -0.44169,0 c -0.0409,-0.0306 -0.0976,-0.0549 -0.17425,-0.0574 -0.0817,-0.003 -0.14612,0.0197 -0.19628,0.0574 l -0.39836,2.2e-4 z m -0.62821,-5.9e-4 c 0,-2.27055 -0.85543,-4.34755 -2.26,-5.92565 l 0.004,2.1e-4 c -0.0443,-0.0487 -0.0893,-0.0968 -0.13454,-0.14446 -0.0858,-0.0924 -0.17343,-0.18302 -0.26319,-0.27173 l -0.006,0 c -0.007,-0.006 -0.0135,-0.0129 -0.0204,-0.0195 l 0,-0.006 c -0.0157,-0.0153 -0.0313,-0.0307 -0.0473,-0.046 -0.002,0 -0.004,-2e-4 -0.007,-2e-4 -0.49576,-0.46945 -1.04486,-0.88315 -1.63676,-1.23135 l 0,-0.0128 -0.0219,0 c -0.0368,-0.0216 -0.074,-0.0429 -0.11126,-0.0641 l 0,-0.008 -0.0139,0 c -0.2062,-0.11607 -0.41739,-0.22423 -0.63315,-0.32436 0,-0.003 -2.5e-4,-0.005 0,-0.008 l -0.0174,0 c -0.0383,-0.0178 -0.0769,-0.0352 -0.11569,-0.0525 l 0,-0.0106 -0.0236,0 c -0.0366,-0.016 -0.073,-0.0317 -0.10944,-0.0473 l 0,-0.0155 c -0.0129,-2.3e-4 -0.0251,-2.3e-4 -0.0373,-2.3e-4 -0.0524,-0.0219 -0.10512,-0.0433 -0.15793,-0.0645 l 0,-0.007 c -0.007,-1.8e-4 -0.0129,0 -0.0193,-1.8e-4 -0.10197,-0.0402 -0.2052,-0.0786 -0.30905,-0.11503 l 0,-0.011 c -0.0106,0 -0.0209,0 -0.0311,-1.9e-4 -0.0546,-0.0189 -0.10923,-0.0373 -0.16421,-0.0552 l 0,-0.0168 c -0.0181,-2.2e-4 -0.0352,-2.2e-4 -0.0522,-2.2e-4 -0.0476,-0.0151 -0.0952,-0.0301 -0.14308,-0.0443 l 0,-0.0188 c -0.0222,0 -0.0433,0 -0.064,-2e-4 -0.0435,-0.0126 -0.0875,-0.0253 -0.13137,-0.0375 1.9e-4,-0.009 1.9e-4,-0.0172 1.9e-4,-0.0255 -0.0327,-1.8e-4 -0.0645,-1.8e-4 -0.0959,-4.1e-4 -0.73436,-0.19441 -1.50495,-0.29804 -2.29883,-0.29804 -0.0532,0 -0.10626,4.1e-4 -0.15933,0.002 l -5.9e-4,-0.28021 c 0.0512,-5.8e-4 0.10247,-10e-4 0.15383,-10e-4 5.04687,0 9.16338,4.11606 9.16338,9.16293 l -0.23505,0 z m -4.35503,4.1e-4 c 0.006,-0.21824 0.0111,-0.42508 0.0181,-0.57346 0.0297,-0.63072 -0.21847,-1.05539 -0.86161,-1.31697 -0.34504,-0.14055 -0.79691,-0.23009 -1.03588,-0.23278 -0.88957,-0.007 -1.52842,0.31465 -2.51641,0.18989 -0.13018,-0.013 -0.23796,-0.073 -0.33018,-0.14968 l -1.9e-4,-0.17762 c 0.0655,0.0634 0.1401,0.11816 0.2284,0.15051 0.13783,0.0172 0.28869,0.0473 0.41367,0.0194 0.0715,-0.4031 0.0486,-0.77351 -0.0172,-1.1762 -0.21323,-0.005 -0.41968,-0.009 -0.62468,-0.0133 l -1.8e-4,-0.18216 c 0.023,-2.2e-4 0.046,-5.9e-4 0.069,-5.9e-4 0.0265,0.0728 0.0579,0.11464 0.0906,0.11464 0.0331,0 0.0636,-0.0425 0.0901,-0.1167 1.70022,-0.0235 3.39543,-0.0699 5.08363,-0.14218 l 0,-0.0129 c 0.0368,0.0767 0.11581,0.13014 0.20639,0.13057 0.12625,2e-4 0.22967,-0.1024 0.22986,-0.22843 4.4e-4,-0.12641 -0.10222,-0.22982 -0.2284,-0.23026 -0.0987,-4.2e-4 -0.18387,0.0628 -0.21639,0.15028 -1.6658,-0.0846 -3.33217,-0.1136 -4.99797,-0.0924 0.008,-0.0949 0.0126,-0.19814 0.0126,-0.30573 0,-0.46674 -0.0808,-0.84748 -0.17989,-0.84748 -0.0692,0 -0.12954,0.18611 -0.1594,0.45743 l 2e-4,-1.40694 c 0.24624,-0.0139 0.5327,0.005 0.85105,0.0622 0.12663,0.0226 0.25743,0.0495 0.39127,0.0798 -0.0882,0.11357 -0.17489,0.24375 -0.25471,0.30694 l 0.008,0.0135 -0.009,0 0.0443,0.1345 c 0.37451,0.0603 0.73619,0.15876 1.08192,0.29099 l 0.36167,-0.32271 0.0401,-0.003 c -5.9e-4,-10e-4 -5.9e-4,-0.002 -0.001,-0.003 0.057,0.0137 0.097,0.0235 0.0808,0.0197 0.40399,0.18198 0.78426,0.40791 1.13481,0.67133 l -0.10659,0.51215 c 0.11297,0.092 0.22157,0.1882 0.32689,0.28871 l 1.24645,0.0243 c 0.058,-0.0999 0.15819,-0.17223 0.2759,-0.19276 0.007,-2.2e-4 0.0148,2.2e-4 0.0216,10e-4 0.082,0.0132 0.33302,-10e-4 0.40766,0.22299 0.0239,0.051 0.0371,0.10838 0.0369,0.16832 -4.5e-4,0.12559 -0.0599,0.23773 -0.15194,0.31047 l 0.53575,3.40678 -0.15997,0 -0.0588,-0.40209 c 0.01,0.13286 0.0147,0.26717 0.0153,0.4025 l -1.39153,0 z m -0.28938,0 c 0.0539,-0.1919 0.10096,-0.36021 0.10532,-0.36559 0.0433,-0.32354 -0.087,-0.48189 -0.12701,-0.71984 0.14749,0.006 0.20057,0.46677 0.20639,1.03509 1.9e-4,0.0166 4.4e-4,0.0334 5.8e-4,0.0504"
           style="fill:#254aa5;fill-opacity:1;fill-rule:evenodd;stroke:none"
           id="path228"
           inkscape:connector-curvature="0" />
        <path
           d="m 212.41733,560.96977 c 0.15567,4.3e-4 0.28222,0.1283 0.28166,0.28459 -5.8e-4,0.15586 -0.12789,0.28271 -0.28355,0.28249 -0.15586,-5.9e-4 -0.28249,-0.12872 -0.28211,-0.28457 5.9e-4,-0.15627 0.12808,-0.28289 0.284,-0.28251 z m -1.31033,0.14841 c 0.17534,4.2e-4 0.31791,0.14447 0.31728,0.32044 -5.8e-4,0.17597 -0.14422,0.31876 -0.31955,0.31812 -0.17578,-5.8e-4 -0.31835,-0.14465 -0.31778,-0.3204 5.8e-4,-0.176 0.14408,-0.31898 0.32005,-0.31816 z m -0.2871,-0.68666 c 0.17559,5.9e-4 0.31816,0.14466 0.31734,0.32062 -4.4e-4,0.17578 -0.14403,0.31879 -0.31961,0.31794 -0.17553,-4.1e-4 -0.31835,-0.14424 -0.31772,-0.32021 5.9e-4,-0.17597 0.14428,-0.31899 0.31999,-0.31835 z m 0.81583,0.12312 c 0.19936,5.8e-4 0.36148,0.16436 0.3606,0.36436 -5.9e-4,0.19982 -0.16389,0.36231 -0.36314,0.36146 -0.1998,-5.9e-4 -0.36167,-0.16436 -0.36104,-0.36414 5.9e-4,-0.19982 0.16377,-0.36231 0.36358,-0.36168 z m -0.28147,-0.11173 c -0.17616,0 -0.32006,-0.14406 -0.32006,-0.32003 0,-0.17637 0.1439,-0.32021 0.32006,-0.32021 0.17615,0 0.32024,0.14384 0.32024,0.32021 0,0.17597 -0.14409,0.32003 -0.32024,0.32003 z m 0.99918,-0.26424 c 0.17534,5.9e-4 0.31797,0.14466 0.31734,0.32082 -5.9e-4,0.17577 -0.14428,0.31856 -0.31961,0.31796 -0.17571,-5.8e-4 -0.31835,-0.14469 -0.31772,-0.32043 4.5e-4,-0.17597 0.14429,-0.3188 0.31999,-0.31835 z m -0.71297,1.68399 c -5.8e-4,-0.002 -0.002,-0.004 -0.003,-0.006 l 0.002,0 c -0.0104,-0.0315 -0.0162,-0.0651 -0.0162,-0.0999 0,-0.11483 0.0619,-0.21553 0.1544,-0.27027 l 0,-0.0135 c 0.0426,-0.0226 0.0918,-0.0356 0.14358,-0.0354 0.0301,0 0.0589,0.005 0.0865,0.0131 0.13929,0.0321 0.2439,0.15731 0.2439,0.30614 0,0.17286 -0.14111,0.31401 -0.31417,0.31401 -0.0103,0 -0.0203,-4.4e-4 -0.0302,-10e-4 0.0121,0.0332 0.0185,0.069 0.0185,0.10633 0,0.17306 -0.14093,0.31421 -0.31379,0.31421 -0.10424,0 -0.19691,-0.0514 -0.25415,-0.12977 -0.0391,-0.0514 -0.0621,-0.11543 -0.0619,-0.18463 1.8e-4,-0.0543 0.0147,-0.10531 0.0395,-0.14946 3.8e-4,-5.8e-4 5.8e-4,-10e-4 5.8e-4,-0.002 l 2.6e-4,-1.9e-4 c 0.0538,-0.0968 0.15686,-0.16227 0.27521,-0.16227 0.01,0 0.019,5.8e-4 0.0286,10e-4"
           style="fill:#ffffff;fill-opacity:1;fill-rule:evenodd;stroke:none"
           id="path230"
           inkscape:connector-curvature="0" />
        <path
           d="m 211.35426,560.44291 c -0.17616,0 -0.32006,-0.14406 -0.32006,-0.32003 0,-0.17637 0.1439,-0.32021 0.32006,-0.32021 0.17615,0 0.32024,0.14384 0.32024,0.32021 0,0.17597 -0.14409,0.32003 -0.32024,0.32003 z m -0.53436,-0.0114 c 0.17559,5.8e-4 0.31816,0.14466 0.31734,0.32063 -4.4e-4,0.17577 -0.14403,0.31878 -0.31961,0.31793 -0.17553,-4.2e-4 -0.31835,-0.14425 -0.31772,-0.32021 5.9e-4,-0.17598 0.14428,-0.31899 0.31999,-0.31835 z m 0.2871,0.68666 c 0.17534,4.2e-4 0.31791,0.14446 0.31728,0.32044 -5.8e-4,0.17597 -0.14422,0.31876 -0.31955,0.31812 -0.17578,-5.8e-4 -0.31835,-0.14466 -0.31778,-0.3204 5.8e-4,-0.17599 0.14408,-0.31898 0.32005,-0.31816 z m 1.24644,-0.93951 c 0.17534,5.9e-4 0.31797,0.14466 0.31734,0.32081 -5.9e-4,0.17578 -0.14428,0.31857 -0.31961,0.31797 -0.17571,-5.8e-4 -0.31835,-0.14469 -0.31772,-0.32043 4.5e-4,-0.17597 0.14429,-0.31879 0.31999,-0.31835 z m 0.0639,0.79109 c 0.15567,4.4e-4 0.28223,0.1283 0.28167,0.2846 -5.9e-4,0.15585 -0.1279,0.28271 -0.28356,0.28249 -0.15585,-5.9e-4 -0.28249,-0.12872 -0.28211,-0.28457 5.9e-4,-0.15627 0.12809,-0.2829 0.284,-0.28252 z m -0.7816,-0.41512 c 0.19937,5.8e-4 0.36148,0.16436 0.3606,0.36436 -5.8e-4,0.19982 -0.16388,0.3623 -0.36313,0.36146 -0.19981,-5.9e-4 -0.36167,-0.16436 -0.36104,-0.36414 5.8e-4,-0.19982 0.16376,-0.36231 0.36357,-0.36168 z m 0.004,1.30802 c -5.9e-4,-0.002 -0.002,-0.004 -0.003,-0.006 l 0.002,0 c -0.0104,-0.0315 -0.0161,-0.0651 -0.0161,-0.0999 0,-0.11483 0.0619,-0.21553 0.15439,-0.27027 l 0,-0.0135 c 0.0426,-0.0226 0.0918,-0.0356 0.14358,-0.0354 0.0301,0 0.0589,0.005 0.0865,0.013 0.13929,0.0321 0.24391,0.15731 0.24391,0.30614 0,0.17286 -0.14111,0.31401 -0.31418,0.31401 -0.0104,0 -0.0203,-4.4e-4 -0.0303,-10e-4 0.012,0.0332 0.0185,0.069 0.0185,0.10633 0,0.17306 -0.14093,0.3142 -0.3138,0.3142 -0.10423,0 -0.1969,-0.0514 -0.25414,-0.12976 -0.0391,-0.0514 -0.0621,-0.11543 -0.0619,-0.18463 1.9e-4,-0.0543 0.0147,-0.10531 0.0395,-0.14946 3.8e-4,-5.9e-4 5.9e-4,-0.001 5.9e-4,-0.002 l 2.5e-4,-1.9e-4 c 0.0538,-0.0968 0.15686,-0.16227 0.27521,-0.16227 0.01,0 0.019,5.8e-4 0.0286,10e-4 z m -0.2742,-0.0199 c -0.0536,-0.007 -0.19899,0.0605 -0.24687,0.0421 l -0.15731,-0.0603 -0.15629,0.48711 -0.53992,0.12125 c 0.0168,-0.038 0.35756,-0.69663 0.2587,-0.66513 -0.0267,0 -0.19482,0.0251 -0.23713,0.0282 0.0249,-0.05 0.12517,-0.11689 0.10259,-0.1563 -0.67439,0.084 -1.09995,0.22388 -1.33019,0.38761 -0.0119,0.007 -0.0214,0.0139 -0.028,0.0207 -5.8e-4,5.9e-4 -0.002,0.002 -0.002,0.002 0.024,-0.17245 0.11253,-0.31878 0.11253,-0.31878 -0.37781,0.18943 -0.83524,0.42302 -1.1756,0.67691 -0.006,-0.0904 0.007,-0.15835 0.0211,-0.24747 0.0115,-0.0698 -1.0446,0.75321 -1.2448,1.02203 0.0724,-0.38612 0.091,-0.32663 0.11487,-0.41494 -0.55384,0.45349 -1.16877,1.02927 -1.46289,1.61315 -0.0253,-0.0819 -0.0504,-0.16331 -0.0757,-0.245 -0.29621,0.36066 -0.5926,0.82844 -0.88856,1.18888 -0.0724,-0.56959 0.069,-1.16254 0.52373,-1.52611 -0.0966,-0.0106 -0.19311,-0.0213 -0.28951,-0.0317 0.37743,-0.4475 0.87174,-0.93167 1.49313,-1.21351 -0.13182,-0.0516 -0.45554,-0.022 -0.60709,-0.006 0.62594,-0.457 1.42494,-0.87133 2.17112,-1.00087 -0.0607,-0.0307 -0.12169,-0.0614 -0.1826,-0.092 0.26027,-0.24769 0.64662,-0.33539 1.06844,-0.37828 -0.0659,-0.0259 -0.13188,-0.0516 -0.19798,-0.0773 0.23922,-0.0653 0.61912,-0.19653 0.86289,-0.26823 -0.1644,-0.0972 -1.48984,0.10861 -1.59927,0.2939 -0.0412,0.0247 0.24106,-0.37183 0.24106,-0.37183 -0.52853,0.14843 -1.10659,0.46905 -1.48155,0.83942 -0.011,-0.0829 -0.004,-0.23194 -0.0157,-0.31484 -0.31581,0.22054 -0.60336,0.60688 -0.78799,0.98265 -0.0354,-0.0997 0.0286,-0.29804 -0.007,-0.39753 -0.32644,0.48998 -0.662,1.096 -0.98863,1.58616 0.0227,-0.34902 0.0153,-0.76623 0.0215,-1.12499 0.71462,-0.90533 1.60052,-1.66868 2.60737,-2.2426 0.41411,-0.0956 1.02949,-0.14902 1.51406,-0.1741 -0.0748,-0.0408 -0.33119,-0.0692 -0.30405,-0.1192 0.40893,-0.0512 1.13145,0.0792 1.64423,0.18138 0.0185,-0.31525 -0.3241,-0.59631 -0.68875,-0.76918 0.54966,-0.14257 1.11924,-0.23356 1.70369,-0.26838 0.25478,0.26528 0.50975,0.71443 0.51488,1.05517 0.1308,-0.3457 0.53827,-0.80668 0.85624,-1.03177 0.45952,0.0435 0.90969,0.12186 1.34694,0.23255 -0.2246,0.23049 -0.44908,0.46076 -0.67357,0.69125 0.57023,-0.12335 1.1393,-0.17182 1.70952,-0.0543 0,0 -0.52208,0.21638 -0.43195,0.21638 0.33492,0.005 2.41856,0.39653 2.23121,0.48688 -0.007,-0.0284 -0.0182,-0.0551 -0.033,-0.0823 0.4477,0.303 0.86593,0.64561 1.25106,1.02266 -0.12498,0.0112 -0.24459,0.0363 -0.29038,0.0504 0.0298,0.0962 0.20746,0.20021 0.2375,0.29617 -0.50468,-0.25803 -1.14238,-0.52708 -1.66889,-0.72771 0.17368,0.16831 0.38988,0.29557 0.50348,0.52439 -0.56212,-0.26487 -1.08464,-0.59982 -1.67327,-0.81267 0.09,0.12623 0.20291,0.26734 0.29285,0.39337 -0.46799,-0.21325 -0.99298,-0.40829 -1.39198,-0.28248 0.33872,0.15294 1.0799,0.3432 1.42728,0.52043 -0.13662,0.008 -0.37046,0.0566 -0.31841,0.0765 0.48913,0.18694 0.97851,0.37369 1.41191,0.60852 -0.22821,-0.0474 -0.48811,-0.0616 -0.72752,-0.0402 0.5957,0.13802 1.14739,0.43112 1.44506,0.74947 -0.13366,-0.0539 -0.33221,-0.10756 -0.47009,-0.11338 0.57623,0.28208 0.9045,0.58221 1.19198,0.86491 -0.0777,0 -0.20766,-0.0131 -0.28584,-0.0131 0.24004,0.18594 0.45453,0.34947 0.45434,0.63237 -0.1828,-0.21949 -0.44206,-0.33515 -0.67319,-0.41016 -0.0181,0.0356 0.0549,0.11543 0.0369,0.15129 -0.13802,-0.0962 -0.315,-0.15957 -0.45289,-0.25556 -0.0602,-0.25307 -0.16476,-0.45371 -0.32062,-0.60975 0.0537,0.22217 0.10778,0.44456 0.16168,0.66718 -0.35213,-0.49725 -0.79282,-0.81497 -1.24152,-1.1182 0.14776,0.21616 0.29824,0.48521 0.2995,0.70159 -1.21931,-1.19426 -1.69167,-1.2152 -2.26082,-1.42285 0.18591,0.16828 0.44378,0.37264 0.62968,0.54092 -0.23366,-0.0769 -1.21938,-0.21097 -1.39306,-0.42675 -0.0485,-0.0601 0.23668,0.43444 0.3155,0.52958 -0.16876,-0.045 -0.47591,-0.10883 -0.59052,-0.0951 -0.0255,-0.10696 -0.16249,-0.52812 -0.18197,-0.46512 -0.0334,0.10842 -0.27547,0.27856 -0.35011,0.24747 -0.0335,0.15465 -0.0764,0.43031 -0.36414,0.45517 -0.42094,0.0363 -0.50349,-0.32291 -0.45225,-0.53433 0.0146,-0.0589 0.13226,-0.18365 0.16312,-0.20768 z m 0.95529,1.13996 c 0.0456,0.007 0.28647,0.0373 0.33328,0.0448 0.0411,0.007 0.0825,0.0136 0.12416,0.0207 0.29159,0.0498 0.59445,0.11256 0.857,0.20873 0.0687,0.1372 0.10677,0.28062 0.22449,0.43233 -0.33911,0.008 -0.73272,-0.0247 -1.07181,-0.017 -0.10336,-0.18676 -0.19475,-0.36541 -0.25345,-0.56751 -0.008,-0.0286 -0.20665,-0.0955 -0.21367,-0.12207 z m 0.99047,1.43964 c 0.20563,-0.0267 0.42302,-0.0157 0.62885,-0.0425 0.0245,0.18881 0.0487,0.3513 0.004,0.54593 -0.27009,-0.0868 -0.46452,-0.28684 -0.63264,-0.50346 z m 0.72424,-0.0526 c 0.18987,0.0671 0.16787,0.11005 0.34465,0.0874 -0.0153,-0.0305 -0.0266,-0.0491 -0.0419,-0.0796 -0.15794,5.9e-4 -0.13428,0.0126 -0.30278,-0.008 z m -4.4081,0.0302 0.92171,0 0,0.009 c -0.01,-2.1e-4 -0.0193,-2.1e-4 -0.0288,-4.1e-4 -0.10734,0.0663 -0.13884,0.15149 -0.3422,0.31484 0.001,-0.0557 -0.0626,-0.13018 -0.0999,-0.11297 -0.13351,0.0615 -0.31024,0.11898 -0.45161,0.27296 0.0417,-0.17887 0.0417,-0.31938 0.097,-0.47919 -0.0316,-10e-4 -0.0638,-0.002 -0.0961,-0.004 z m 0.30861,-0.70036 c 0.25908,-0.0116 0.84934,5.9e-4 1.35612,-0.022 -0.0116,-0.22859 0.007,-0.50446 0.057,-0.76354 -0.48293,0.004 -0.75258,0.0593 -1.20502,0.18507 0,0 -0.17286,0.39608 -0.20809,0.60045"
           style="fill:#00a650;fill-opacity:1;fill-rule:evenodd;stroke:none"
           id="path232"
           inkscape:connector-curvature="0" />
      </g>
    </g>
  </g>
</svg>
